<?xml version="1.0" standalone="no"?>
<!DOCTYPE svg PUBLIC "-//W3C//DTD SVG 1.1//EN" "http://www.w3.org/Graphics/SVG/1.1/DTD/svg11.dtd" >
<!--
2013-9-30: Created.
-->
<svg>
<metadata>
Created by iconfont
</metadata>
<defs>

<font id="iconfont" horiz-adv-x="1024" >
  <font-face
    font-family="iconfont"
    font-weight="500"
    font-stretch="normal"
    units-per-em="1024"
    ascent="896"
    descent="-128"
  />
    <missing-glyph />
    
    <glyph glyph-name="github" unicode="&#58956;" d="M512 810.666667C276.266667 810.666667 85.333333 619.733333 85.333333 384a426.410667 426.410667 0 0 1 291.754667-404.821333c21.333333-3.712 29.312 9.088 29.312 20.309333 0 10.112-0.554667 43.690667-0.554667 79.445333-107.178667-19.754667-134.912 26.112-143.445333 50.133334-4.821333 12.288-25.6 50.133333-43.733333 60.288-14.933333 7.978667-36.266667 27.733333-0.554667 28.245333 33.621333 0.554667 57.6-30.933333 65.621333-43.733333 38.4-64.512 99.754667-46.378667 124.245334-35.2 3.754667 27.733333 14.933333 46.378667 27.221333 57.045333-94.933333 10.666667-194.133333 47.488-194.133333 210.688 0 46.421333 16.512 84.778667 43.733333 114.688-4.266667 10.666667-19.2 54.4 4.266667 113.066667 0 0 35.712 11.178667 117.333333-43.776a395.946667 395.946667 0 0 0 106.666667 14.421333c36.266667 0 72.533333-4.778667 106.666666-14.378667 81.578667 55.466667 117.333333 43.690667 117.333334 43.690667 23.466667-58.666667 8.533333-102.4 4.266666-113.066667 27.178667-29.866667 43.733333-67.712 43.733334-114.645333 0-163.754667-99.712-200.021333-194.645334-210.688 15.445333-13.312 28.8-38.912 28.8-78.933333 0-57.045333-0.554667-102.912-0.554666-117.333334 0-11.178667 8.021333-24.490667 29.354666-20.224A427.349333 427.349333 0 0 1 938.666667 384c0 235.733333-190.933333 426.666667-426.666667 426.666667z"  horiz-adv-x="1024" />

    
    <glyph glyph-name="weixin4" unicode="&#58981;" d="M683.058 531.305c11 0 22-1.016 32.943-1.976C686.564 665.936 538.896 768 370.681 768c-188.104-0.66-342.237-127.793-342.237-289.226 0-93.068 51.379-169.827 136.725-229.256L130.72 147.57l119.796 59.368c42.918-8.395 77.37-16.79 119.742-16.79 11 0 21.46 0.48 31.914 1.442a259.168 259.168 0 0 0-10.455 71.358c0.485 148.002 128.744 268.297 291.403 268.297l-0.06 0.06z m-184.113 91.992c25.99 0 42.913-16.79 42.913-42.575 0-25.188-16.923-42.579-42.913-42.579-25.45 0-51.38 16.85-51.38 42.58 0 25.784 25.93 42.574 51.38 42.574z m-239.544-85.154c-25.384 0-51.374 16.85-51.374 42.58 0 25.784 25.99 42.574 51.374 42.574 25.45 0 42.918-16.79 42.918-42.575 0-25.188-16.924-42.579-42.918-42.579z m736.155-271.655c0 135.647-136.725 246.527-290.983 246.527-162.655 0-290.918-110.88-290.918-246.527 0-136.128 128.263-246.587 290.918-246.587 33.972 0 68.423 8.395 102.818 16.85l93.809-50.973-25.93 84.677c68.907 51.93 120.286 119.815 120.286 196.033z m-385.275 42.58c-16.923 0-34.452 16.79-34.452 34.179 0 16.79 17.529 34.18 34.452 34.18 25.99 0 42.918-16.85 42.918-34.18 0-17.39-16.928-34.18-42.918-34.18z m188.165 0c-16.984 0-33.972 16.79-33.972 34.179 0 16.79 16.927 34.18 33.972 34.18 25.93 0 42.913-16.85 42.913-34.18 0-17.39-16.983-34.18-42.913-34.18z"  horiz-adv-x="1024" />

    
    <glyph glyph-name="weibo2" unicode="&#58911;" d="M918.485 686.922c-62.138 69.905-155.345 95.796-238.195 77.672-20.713-5.178-31.069-23.301-28.48-44.014 5.178-20.713 23.302-31.069 44.014-28.48 59.55 12.945 126.865-5.178 170.88-54.37 44.014-49.193 56.96-116.509 36.247-176.058-2.59-10.356-2.59-18.123 2.589-28.48 5.178-7.767 12.945-15.534 20.712-18.123 18.124-5.178 38.836 5.178 46.604 23.302 23.301 85.44 7.767 178.646-54.371 248.551zM807.155 459.083c15.534-5.178 33.658 2.59 38.836 20.713 12.945 41.425 5.178 85.44-25.89 119.097-31.07 33.658-75.084 46.604-116.51 38.837-18.123-2.59-28.48-20.713-23.301-36.248 2.59-18.123 20.713-28.48 36.247-23.301 20.713 5.178 41.425-2.59 56.96-18.124 15.534-15.534 18.123-38.836 12.945-59.549-5.178-18.123 5.178-36.247 20.713-41.425z m-62.138-59.549c-12.945 5.179-23.302 7.768-15.535 23.302 15.535 38.836 15.535 72.494 0 95.796-31.068 44.014-116.508 41.425-212.304 0 0 0-31.069-12.945-23.302 10.356 15.535 49.193 12.946 88.029-10.356 111.33-51.781 51.782-191.592-2.588-310.689-121.686-88.029-90.618-139.81-183.824-139.81-266.675 0-157.934 201.948-253.73 398.718-253.73 258.907 0 429.786 150.167 429.786 269.265 0 72.494-62.138 113.919-116.508 132.042zM431.739 55.187c-157.934-15.534-292.566 56.96-302.922 157.934-10.357 103.563 108.74 199.359 266.675 214.893 157.933 15.535 292.565-56.96 302.922-157.933 10.356-103.563-108.742-199.36-266.675-214.894zM447.273 350.342c-75.083 20.713-160.523-18.124-191.592-82.85-33.658-67.316 0-142.4 75.084-165.701 77.672-25.891 170.879 12.945 201.948 85.44 31.069 69.904-7.768 142.398-85.44 163.111z m-56.96-173.468c-15.534-23.302-46.603-36.247-72.494-23.302-23.301 10.356-31.069 38.836-15.534 62.138 15.534 23.302 46.603 33.658 69.905 23.302 25.89-7.768 33.658-36.247 18.123-62.138z"  horiz-adv-x="1024" />

    
    <glyph glyph-name="out" unicode="&#58959;" d="M52.076 1100.4l121.841 121.841 1527.643-1527.643-121.841-121.841-1527.643 1527.643zM1579.213 1222.835l121.841-121.841-1527.643-1527.643-121.841 121.841 1527.643 1527.643z"  horiz-adv-x="1756" />

    
    <glyph glyph-name="suoyi" unicode="&#58913;" d="M770 207m125 0a125 125 0 1 1-250 0 125 125 0 1 1 250 0ZM270 207m125 0a125 125 0 1 1-250 0 125 125 0 1 1 250 0ZM520 631m125 0a125 125 0 1 1-250 0 125 125 0 1 1 250 0Z"  horiz-adv-x="1024" />

    
    <glyph glyph-name="xiangxia" unicode="&#59012;" d="M463.165899 171.035666C490.130662 144.070903 533.888547 144.090094 560.834101 171.035666L943.037158 553.238705C956.826695 567.028259 956.826695 589.385534 943.037158 603.175089 929.247603 616.964626 906.890328 616.964626 893.100774 603.175089L510.897735 220.972032C511.521457 221.595754 130.899226 603.175089 130.899226 603.175089 117.109672 616.964626 94.752397 616.964626 80.962842 603.175089 67.173305 589.385534 67.173305 567.028259 80.962842 553.238705L463.165899 171.035666Z"  horiz-adv-x="1024" />

    
    <glyph glyph-name="jiangpai" unicode="&#58951;" d="M314.6 704.5h403.5v-139.3H314.6zM587.5 100.7H424.9l-215 603.8h162.5zM459.6 100.7h162.6l215 603.8H674.7zM699 170.4c0 102.6-83.2 185.8-185.8 185.8-102.6 0-185.8-83.2-185.8-185.8 0-102.6 83.2-185.8 185.8-185.8 102.6 0 185.8 83.2 185.8 185.8zM856.2 717.9c-4.3 6.2-11.4 9.8-19 9.8H209.9c-7.5 0-14.6-3.7-19-9.8-4.4-6.2-5.4-14.1-2.9-21.2l148.1-415.9c-20.1-32.1-31.9-69.9-31.9-110.4 0-115.2 93.8-209 209-209s209 93.8 209 209c0 31.3-7.1 60.8-19.4 87.5l156.3 438.9c2.5 7.1 1.5 14.9-2.9 21.1z m-343-338.5h-0.3L455 542h137.1l-58.3-163.6c-6.7 0.6-13.6 1-20.6 1z m95.4 209H438.4l-33.1 92.9h236.4l-33.1-92.9z m-252.5 92.9l109.6-307.6c-36.2-8.5-68.8-26.4-95.1-51L242.8 681.3h113.3z m157.1-673.5c-89.6 0-162.6 72.9-162.6 162.6 0 89.6 72.9 162.6 162.6 162.6s162.6-73 162.6-162.6c0-89.7-72.9-162.6-162.6-162.6zM671 307c-24.2 27.9-55.6 49.3-91.4 61.3l111.4 313h113.3L671 307zM625.6 152.9c-8.6 0-16.1 6.4-17.2 15.1-11.9 89.2-91.8 90.9-95.2 90.9-9.6 0.1-17.3 7.9-17.3 17.5s7.8 17.3 17.4 17.4h0.1c39.3 0 116.8-25.3 129.6-121.1 1.3-9.5-5.4-18.3-15-19.6-0.8-0.1-1.6-0.2-2.4-0.2z"  horiz-adv-x="1024" />

    
    <glyph glyph-name="sousuo1" unicode="&#58896;" d="M404.210526 896C180.547368 896 0 715.452632 0 491.789474s180.547368-404.210526 404.210526-404.210527c97.010526 0 185.936842 35.031579 256 91.621053 21.557895 16.168421 37.726316 35.031579 56.589474 56.589474 56.589474 70.063158 91.621053 158.989474 91.621053 256 0 223.663158-180.547368 404.210526-404.210527 404.210526z m0-727.578947C226.357895 168.421053 80.842105 313.936842 80.842105 491.789474S226.357895 815.157895 404.210526 815.157895s323.368421-145.515789 323.368421-323.368421-145.515789-323.368421-323.368421-323.368421zM1010.526316-117.221053c-8.084211-8.084211-18.863158-10.778947-26.947369-10.778947-10.778947 0-21.557895 2.694737-26.947368 10.778947l-293.726316 296.421053c21.557895 16.168421 37.726316 35.031579 56.589474 56.589474l293.726316-296.421053c13.473684-16.168421 13.473684-40.421053-2.694737-56.589474zM716.8 235.789474c-16.168421-21.557895-35.031579-37.726316-56.589474-56.589474l-2.694737 2.694737c-16.168421 16.168421-16.168421 40.421053 0 56.589474 8.084211 8.084211 18.863158 10.778947 26.947369 10.778947 10.778947 0 21.557895-2.694737 32.336842-13.473684z"  horiz-adv-x="1024" />

    
    <glyph glyph-name="LV" unicode="&#58893;" d="M34.133352 861.866648m109.226724 0l1242.453996 0q109.226725 0 109.226725-109.226724l0-477.866922q0-109.226725-109.226725-109.226725l-1242.453996 0q-109.226725 0-109.226724 109.226725l0 477.866922q0 109.226725 109.226724 109.226724ZM1385.814072 131.412926H143.360076A143.633143 143.633143 0 0 0 0 274.773002V752.639924A143.360076 143.360076 0 0 0 143.360076 896h1242.453996A143.633143 143.633143 0 0 0 1529.174149 752.639924v-477.866922A143.633143 143.633143 0 0 0 1385.814072 131.412926zM143.360076 827.733297A75.093373 75.093373 0 0 1 68.266703 752.639924v-477.866922a75.093373 75.093373 0 0 1 75.093373-75.093373h1242.453996a75.093373 75.093373 0 0 1 75.093374 75.093373V752.639924a75.093373 75.093373 0 0 1-75.093374 75.093373zM288.358554 657.88574v-339.148981h214.630514V267.946332H229.376122V657.88574zM581.086177 657.88574l110.865125-323.311106h1.638401l109.226725 323.311106h65.536035L728.542255 267.946332H655.36035L516.642409 657.88574zM974.302386 334.574634a40.413888 40.413888 0 0 0 12.01494-29.491216 41.779222 41.779222 0 0 0-12.01494-28.945082 43.417623 43.417623 0 0 0-28.945082-10.922672 38.229354 38.229354 0 0 0-27.306681 10.922672 39.594688 39.594688 0 0 0-12.01494 28.945082 38.229354 38.229354 0 0 0 12.01494 29.491216 36.590953 36.590953 0 0 0 27.306681 11.468806 41.233089 41.233089 0 0 0 28.945082-11.468806zM1277.406548 657.88574v-257.775071h58.982431v-47.513625h-58.982431V267.946332H1220.608651v84.650712h-191.146769v56.251763l191.146769 249.036933z m-198.246506-257.775071h141.448609v182.40863h-1.638401z"  horiz-adv-x="2048" />

    
    <glyph glyph-name="weibo" unicode="&#59004;" d="M373.708745 279.119586c-23.893255-2.475743-40.989896-23.356066-40.989896-43.208722s19.23372-33.749515 43.126976-30.93511 43.150332 21.090528 43.150332 40.978218-17.855712 35.793171-45.287412 33.165614zM868.121627 896h-712.243231A155.878384 155.878384 0 0 1 0.000012 740.074904v-712.184842a155.878384 155.878384 0 0 1 155.878384-155.890062h712.243231a155.890062 155.890062 0 0 1 155.878385 155.890062V740.074904A155.890062 155.890062 0 0 1 868.121627 896zM777.406667 241.422895c-52.446046-111.373401-225.280934-165.571152-353.42399-155.539721-121.76685 9.564309-278.252492 50.040371-294.461602 197.370435 0 0-8.571676 66.72828 56.147983 153.087335 0 0 93.050567 129.929795 201.422713 166.995871 108.488926 36.902584 121.124558-25.551536 121.124558-62.45412-5.75727-31.308806-16.547773-49.736742 24.173528-37.089433 0 0 106.620441 49.45647 150.506489 5.593778 35.396118-35.419474 5.839016-84.151906 5.839017-84.151906s-14.679287-16.244144 15.531784-22.094838c30.304496-6.049221 125.562211-50.192186 73.13952-161.717401z m-105.102297 307.692813a21.020459 21.020459 0 0 0 0 42.040919s130.700545 24.16185 115.087015-116.278174a8.524964 8.524964 0 0 0-0.280272-2.218827 20.950391 20.950391 0 0 0-41.632188 3.339918s20.681796 93.797961-73.209589 73.092808z m220.936706-112.354355h-0.186848c-3.50341-23.764797-15.251511-25.691673-29.300185-25.691673-16.804689 0-30.362886 10.51023-30.362886 27.384988 0 14.574185 6.037543 29.381931 6.037543 29.381931 1.775061 6.130967 15.987227 44.259745-9.342426 101.236868-46.490249 78.079329-140.136396 79.212098-151.160459 74.739411s-27.653582-6.504664-27.653582-6.504665a30.619802 30.619802 0 0 0-8.256369 60.071802 1.272906 1.272906 0 0 0 0.735716 0.560546c0.922565 0.186849 1.868485 1.167803 2.872796 1.167803 13.021007 2.510777 59.499578 11.678033 104.681888 1.051023 80.8587-18.860023 191.846726-97.032776 141.934812-263.398034zM433.46524 429.077207c-127.162101-5.839016-229.975504-73.992017-229.975504-158.961385s102.76669-148.638004 229.975504-142.693885 230.255776 85.459845 230.255776 170.312433-103.000251 137.216888-230.255776 131.342837z m86.639327-213.708003c-38.94624-50.215542-115.997902-74.797801-190.842415-34.286705-35.606323 19.315467-34.286705 57.222362-34.286705 57.222362s-14.78439 119.898365 113.125105 134.82289c128.096344 14.84278 150.950254-107.472938 112.004015-157.758547zM434.317736 295.59729c-8.174623-5.944119-9.85626-17.295167-5.395251-24.372055 4.262482-7.24038 14.223844-8.081199 22.316721-2.043655 7.906028 6.247748 10.965673 17.131674 6.691513 24.372055-4.285838 7.06521-14.13042 9.097188-23.612983 2.043655z"  horiz-adv-x="1024" />

    
    <glyph glyph-name="pinglun" unicode="&#58895;" d="M512.6-96c-18 0-36.2 1-54.5 3C254.8-70.9 61.4 119.1 35.9 321.8c-18.8 149.5 31 295.9 136.7 401.6C278.2 829.1 424.7 879 574.2 860.1 776.6 834.6 966.5 641.5 989 438.5c12.1-109.5-11.8-215.6-69.1-307.7 12.1-44.1 46-161 46-161 3.2-11.2 0.1-23.3-8.1-31.5s-20.3-11.4-31.5-8.1c0 0-117.2 33.9-160.5 46.3-76.7-47.9-163.2-72.5-253.2-72.5z m-0.3 896c-110.5 0-215.6-43-294.5-121.8C126.2 586.6 83 459.6 99.4 329.8 121.1 157.3 292-10.6 465.1-29.4c97.8-10.7 192.3 11.7 273.5 64.5 10.6 6.9 23.9 8.8 36.4 5.3 19.3-5.5 71.9-20.7 113.3-32.7-12 41.7-27.2 94.9-32.6 115-3.2 12.1-1.1 25 5.8 35.5 52.5 81 74.6 175.5 63.8 273.2-19 172.9-186.9 343.5-359.1 365.2-18 2.3-36.1 3.4-53.9 3.4z m261.2-818.5z m141.7 142.1c0-0.1-0.1-0.1-0.1-0.2 0.1 0 0.1 0.1 0.1 0.2zM336 352c-26.5 0-48 21.5-48 48s21.5 48 48 48 48-21.5 48-48-21.6-48-48-48zM528 352c-26.5 0-48 21.5-48 48s21.5 48 48 48 48-21.5 48-48-21.6-48-48-48zM720 352c-26.5 0-48 21.5-48 48s21.5 48 48 48 48-21.5 48-48-21.6-48-48-48z"  horiz-adv-x="1024" />

    
    <glyph glyph-name="fenxiang" unicode="&#58882;" d="M543.503059 793.931294l-2.831059-530.55247a30.117647 30.117647 0 0 0-60.235294 0.301176l2.800941 528.715294-160.768-160.768a30.117647 30.117647 0 0 0-42.586353 42.586353L492.845176 887.175529a30.117647 30.117647 0 0 0 42.586353 0l212.961883-212.961882a30.117647 30.117647 0 1 0-42.586353-42.586353l-162.334118 162.334118zM708.306824 504.470588a30.117647 30.117647 0 0 0 0 60.235294H873.411765a60.235294 60.235294 0 0 0 60.235294-60.235294v-572.235294a60.235294 60.235294 0 0 0-60.235294-60.235294H150.588235a60.235294 60.235294 0 0 0-60.235294 60.235294V504.470588a60.235294 60.235294 0 0 0 60.235294 60.235294h163.056941a30.117647 30.117647 0 0 0 0-60.235294H150.588235v-572.235294h722.82353V504.470588h-165.104941z"  horiz-adv-x="1024" />

    
    <glyph glyph-name="pinglun1" unicode="&#58880;" d="M844.8 822.4H179.2c-63.6 0-115.1-51.6-115.2-115.2v-454.9c0-63.5 51.7-115.2 115.2-115.2h352l180.3-180.3c7.5-7.5 17.3-11.2 27.2-11.2 9.8 0 19.7 3.7 27.2 11.2 15 15 15 39.3 0 54.3l-184 184c-12 12.1-28.3 18.8-45.3 18.8H179.2c-21.2 0-38.4 17.2-38.4 38.4V707.2c0 21.2 17.2 38.4 38.4 38.4h665.6c21.2 0 38.4-17.2 38.4-38.4v-454.9c0-21.2-17.2-38.4-38.4-38.4h-87c-21.2 0-38.4-17.2-38.4-38.4s17.2-38.4 38.4-38.4h87c63.5 0 115.2 51.7 115.2 115.2V707.2c0 63.5-51.7 115.2-115.2 115.2z"  horiz-adv-x="1024" />

    
    <glyph glyph-name="weibo1" unicode="&#58886;" d="M0 384a512 512 0 1 1 1024 0A512 512 0 1 1 0 384zM633.65 512.708c75.705 16.713 58.991-58.992 58.991-60.958 0-8.848 6.881-16.714 16.714-16.714 8.846 0 15.731 6.883 16.714 14.747v1.967c9.387 83.773-44.881 95.402-74.354 95.673-4.105-12.204-10.611-23.83-19.209-34.651 0.38-0.03 0.76-0.064 1.144-0.064z m-346.033-41.049c-26.664-27.944-43.306-51.37-43.306-51.37-52.108-69.807-45.227-123.881-45.227-123.881 12.782-119.947 138.627-152.393 235.962-160.261 102.251-7.863 240.876 36.379 283.155 126.833 42.277 90.449-34.41 125.846-57.021 129.777-24.577 4.917-12.78 17.699-12.78 17.699s23.595 40.311-4.921 68.821c-7.973 7.974-18.495 12.096-30.007 13.712-40.301-35.157-104.994-57.955-177.941-57.955-56.87 0.002-108.721 13.86-147.914 36.625z m340.135-162.472c0-68.819-82.591-133.709-184.84-138.631-102.251-4.911-184.837 47.194-184.837 116.019s82.586 123.881 184.837 128.798c101.267 4.916 183.858-38.344 184.84-106.186zM358.359 213.816c59.974-33.427 121.914-13.762 153.377 27.534 31.46 41.296 12.777 140.593-90.454 127.815-102.251-11.803-90.451-109.138-90.451-109.138s-0.985-30.473 27.528-46.211z m84.553 93.407c7.866 4.917 15.731 3.929 18.681-1.964 3.935-5.904 0.985-14.75-4.916-19.666-5.899-4.916-14.747-3.934-17.696 1.965-3.935 5.898-2.95 14.749 3.931 19.665z m-48.176-13.767c21.63 1.97 36.379-10.815 36.379-27.528 0-16.714-15.731-31.463-34.412-33.428-18.681-1.964-34.412 9.833-34.412 25.564 0 16.714 12.782 33.427 32.445 35.392z m301.835 333.3c-19.998 5-40.622 6.231-56.733 6.003 8.393-13.008 13.887-26.989 15.975-41.609 26.218-1.484 76.25-13.116 104.666-61.729 20.647-46.209 8.851-77.672 7.868-82.588 0 0-4.916-11.797-4.916-23.597 0-13.762 10.815-31.46 24.582-31.46 10.814 0 20.647-7.866 23.595 11.797 39.325 134.697-49.165 207.452-115.037 223.183zM633.65 546.135c-8.845 0-16.713-6.881-16.713-16.713 0-8.466 7.202-16.009 15.568-16.65 8.598 10.821 15.104 22.447 19.209 34.651-10.651 0.097-18.064-1.288-18.064-1.288z m-111.101-71.774c-32.442-9.83-24.577 4.917-19.663 30.481 0 30.478-9.83 80.619-97.335 51.125-45.694-16.098-88.091-53.033-117.934-84.309 39.192-22.765 91.043-36.624 147.913-36.624 72.947 0 137.641 22.797 177.941 57.955-39.586 5.558-90.922-18.628-90.922-18.628z m90.454 156.327l-2.503-0.469c-9.827-2.949-18.14-9.361-18.14-21.161 0-13.764 10.815-24.579 24.577-24.579 0 0 13.762 1.967 22.611 5.898 2.118 0.707 8.015 1.241 16.264 0.774-2.088 14.62-7.582 28.601-15.975 41.609-12.4-0.176-22.13-1.217-26.834-2.072z"  horiz-adv-x="1024" />

    
    <glyph glyph-name="xiangyou-copy" unicode="&#58881;" d="M797.6589 409.8616L414.7028 822.3829000000001H238.01538420026444l382.9551-412.5213-382.9551-382.9404h176.68844945769544L797.6589 409.8616zM797.6589 409.8616"  horiz-adv-x="1000" />

    
    <glyph glyph-name="xiangxia1" unicode="&#58898;" d="M246.784 559.542857h530.432a14.628571 14.628571 0 0 0 12.214857-22.674286l-265.289143-397.897142a14.628571 14.628571 0 0 0-24.283428 0L234.569143 536.868571a14.628571 14.628571 0 0 0 12.214857 22.674286z"  horiz-adv-x="1024" />

    
    <glyph glyph-name="weixin2" unicode="&#59006;" d="M537.122509 486.303293zM316.146827 576.539533a37.232226 37.232226 0 0 1-39.991222-33.150619 37.331778 37.331778 0 0 1 39.991222-33.150618 31.287585 31.287585 0 0 1 33.150619 33.207505 31.188034 31.188034 0 0 1-33.150619 33.07951m185.777148-66.215907a31.287585 31.287585 0 0 1 33.207506 33.150618 31.287585 31.287585 0 0 1-33.207506 33.150619 36.976237 36.976237 0 0 1-39.820563-33.150619 37.218005 37.218005 0 0 1 39.820563-33.150618m86.211519-126.288072a26.494896 26.494896 0 0 1 0-52.989792 30.235185 30.235185 0 0 1 33.278614 26.494896 30.19252 30.19252 0 0 1-33.278614 26.494896m146.098802 0a26.523339 26.523339 0 0 1 0-53.046678 30.27785 30.27785 0 0 1 33.278613 26.566004 30.491174 30.491174 0 0 1-33.278613 26.494896m92.867241 511.964446H196.855798A196.912684 196.912684 0 0 1-0.014222 699.030429v-630.174631a196.912684 196.912684 0 0 1 196.87002-196.813133h630.231518a197.111787 197.111787 0 0 1 193.727039 162.126578l3.128758 160.818188V699.030429A196.983792 196.983792 0 0 1 827.087316 896M402.457898 237.993639a450.612336 450.612336 0 0 0-92.924129 13.240337l-92.725025-46.51895 26.509118 79.754899c-66.486119 46.518951-106.235574 106.363568-106.235574 179.192534 0 126.259628 119.461689 225.654598 265.389831 225.654597 130.55456 0 244.78269-79.484688 267.892838-186.303348a231.684569 231.684569 0 0 1-25.598933 1.535936c-126.131633 0-225.58349-94.07608-225.654598-209.96814a195.405191 195.405191 0 0 1 8.248545-55.734567q-12.472369-0.753746-24.95896-0.839076m391.336583-93.10901l20.024055-66.358124-72.828966 39.977001a332.430593 332.430593 0 0 0-79.641126-13.240337c-126.330736 0-225.654598 86.268405-225.654597 192.503979s99.437635 192.617752 225.654597 192.617752c119.219921 0 225.455495-86.453287 225.455495-192.631973 0-59.730845-39.678347-112.891296-93.052123-152.882519m0.056887 0z"  horiz-adv-x="1024" />

    
    <glyph glyph-name="weixin3" unicode="&#61181;" d="M391.62 545.22a33.9 33.9 0 1 1 33.9-33.9 33.91 33.91 0 0 1-33.9 33.9zM558.22 477.41a33.91 33.91 0 1 1-33.9 33.9 33.9 33.9 0 0 1 33.9-33.9zM591.68 340.13a27.93 27.93 0 1 1 17.24-25.8 27.9 27.9 0 0 1-17.24 25.8zM713 340.13a27.93 27.93 0 1 1 17.24-25.8 27.92 27.92 0 0 1-17.24 25.8zM72 824v-880h880V824z m278.68-620.62l-88.32-47A17.81 17.81 0 0 0 237 177.33l28.31 93.23A234.53 234.53 0 0 0 228 332.77a220 220 0 0 0 5.61 177.34A242.14 242.14 0 0 0 292 587.16c51 45.32 118.66 70.27 190.54 70.27 68.77 0 134.31-23.12 184.57-65.11 48.27-40.38 78.09-94.42 84.59-152.93a218.73 218.73 0 0 1-22 10.49l-0.44 0.18q-4.56 1.86-9.19 3.52l-0.8 0.28c-1 0.35-2 0.69-2.93 1l-0.55 0.18c-1.8 0.6-3.63 1.18-5.47 1.75l-1.14 0.35-2.66 0.78-1.48 0.41c-1.41 0.4-2.83 0.78-4.26 1.15l-1.81 0.47-2.34 0.57-2 0.47-2.21 0.5c-1.25 0.28-2.51 0.54-3.76 0.8l-1.92 0.37-2.54 0.48-1.93 0.34c-1.12 0.2-2.24 0.38-3.37 0.56l-1.86 0.3-3.39 0.48-1.66 0.22c-1.11 0.15-2.22 0.28-3.33 0.41l-1.21 0.13c-1.45 0.16-2.92 0.3-4.39 0.44l-1.38 0.12c-1.14 0.1-2.29 0.19-3.45 0.26l-1.27 0.09c-1.52 0.1-3 0.18-4.55 0.25h-0.92l-3.84 0.12h-1.29c-1.56 0.05-3.12 0.05-4.69 0.05-56.22 0-109.17-19.54-149.1-55a190.15 190.15 0 0 1-45.86-60.49 173.27 173.27 0 0 1 0-149.61c0.64-1.34 1.3-2.67 2-4 0.21-0.47 0.45-0.92 0.69-1.38 0.47-0.86 0.92-1.72 1.38-2.58l0.89-1.62c0.41-0.75 0.83-1.5 1.25-2.25 0.32-0.58 0.67-1.16 1-1.74s0.88-1.46 1.23-2.07 0.69-1.15 1.1-1.81 0.84-1.35 1.23-2 0.75-1.19 1.17-1.83l1.25-1.9c0.41-0.6 0.81-1.21 1.23-1.82s0.93-1.27 1.35-1.86 0.82-1.17 1.24-1.75a294.46 294.46 0 0 0-113.04 30.18z m451.19 19.73a148.19 148.19 0 0 0-22.48-38l17-56A14.35 14.35 0 0 0 776 112.24l-53.21 28.26a186.3 186.3 0 0 0-81.57-18.59c-45.33 0-88 15.75-120.17 44.34A153.31 153.31 0 0 0 484.1 215a139.56 139.56 0 0 0 0 120.55 153.2 153.2 0 0 0 36.95 48.74c32.2 28.59 74.84 44.34 120.17 44.34s88-15.75 120.16-44.34a153.06 153.06 0 0 0 37-48.74 139.54 139.54 0 0 0 3.54-112.43z"  horiz-adv-x="1024" />

    
    <glyph glyph-name="dianzan2" unicode="&#58955;" d="M274.6368 16.9984H230.4a64.8704 64.8704 0 0 0-64.512 58.7776l-29.0816 321.7408 30.72 2.7648-30.72-2.6624v0.7168a65.1264 65.1264 0 0 0 59.6992 69.9904h0.5632l73.7792 4.4032h3.7376a65.024 65.024 0 0 0 65.1264-64.6144V81.92a65.1264 65.1264 0 0 0-65.0752-64.9216z m-76.8 386.048l29.0816-321.536a3.584 3.584 0 0 1 3.584-3.072h43.9808a3.6352 3.6352 0 0 1 3.6352 3.6352V407.9616a3.584 3.584 0 0 1-3.584 3.4816l-73.472-4.352a3.6864 3.6864 0 0 1-3.1744-3.8912l-30.72-2.9184zM728.4224 15.36l-266.24 4.352a81.92 81.92 0 0 0-65.2288 25.0368l-1.6384 1.792-10.24 12.8a88.1152 88.1152 0 0 0-19.8144 55.6032V422.7072a77.9776 77.9776 0 0 0 26.0608 60.0576A400.128 400.128 0 0 1 478.72 593.3056C491.52 617.984 494.3872 643.072 496.64 665.1392A231.8336 231.8336 0 0 0 502.5792 701.44a86.4256 86.4256 0 0 0 4.3008 12.3392A66.56 66.56 0 0 0 593.3056 747.52a126.3104 126.3104 0 0 0 50.0224-33.6896l1.792-2.1504c51.6096-67.584 34.1504-168.96 18.432-224.8704l144.3328 3.072A72.3456 72.3456 0 0 0 863.2832 465.92a96.9728 96.9728 0 0 0 21.7088-85.6064l-72.0384-310.8352c-10.0864-37.0688-56.3712-54.1184-84.5312-54.1184z m-268.6976 65.6384l269.2096-4.4032a44.288 44.288 0 0 1 24.9344 10.24l71.2704 307.2a35.5328 35.5328 0 0 1-7.936 31.1808 10.9056 10.9056 0 0 1-8.0896 3.4304l-165.2224-3.6864a46.592 46.592 0 0 0-47.36 45.3632 46.08 46.08 0 0 0 2.304 15.36c20.48 62.0544 30.72 143.616-1.9456 187.6992a64.4096 64.4096 0 0 1-25.2416 16.4864l-2.0992 0.8704a5.12 5.12 0 0 1-6.5024-2.5088 25.9072 25.9072 0 0 1-1.2288-3.3792 186.5728 186.5728 0 0 1-3.9424-26.5728c-2.7136-24.7808-6.4-58.7264-24.8832-94.0032a461.056 461.056 0 0 0-100.864-127.3856 16.9984 16.9984 0 0 1-5.5296-12.9536v-309.1456a26.88 26.88 0 0 1 6.0416-16.896l9.472-11.7248a20.1728 20.1728 0 0 1 15.7184-5.376z m294.5536 6.0416z"  horiz-adv-x="1024" />

    
    <glyph glyph-name="lv3" unicode="&#58993;" d="M170.666667 896h1706.666666c93.866667 0 170.666667-76.8 170.666667-170.666667v-682.666666c0-93.866667-76.8-170.666667-170.666667-170.666667H170.666667c-93.866667 0-170.666667 76.8-170.666667 170.666667V725.333333C0 819.2 76.8 896 170.666667 896zM375.466667 640v-443.733333h256l-42.666667-102.4H256V640h119.466667z m418.133333-8.533333v-187.733334l136.533333-256 153.6 256V631.466667h102.4v-221.866667l-179.2-315.733333H853.333333L674.133333 418.133333V631.466667h119.466667zM1365.333333 631.466667h426.666667v-537.6h-426.666667V204.8h324.266667V307.2h-221.866667V418.133333h221.866667V520.533333H1365.333333z"  horiz-adv-x="2048" />

    
    <glyph glyph-name="jinpai" unicode="&#61245;" d="M880.7424 770.2528v0.5632H144.6912l99.9424-146.3808h536.576zM511.6928 194.9184m-225.9456 0a225.9456 225.9456 0 1 1 451.8912 0 225.9456 225.9456 0 1 1-451.8912 0ZM402.688 392.8576L144.6912 770.816 50.1248 696.4736a31.3856 31.3856 0 0 1-6.7584-42.0352l254.9248-385.28c18.3808 52.992 55.9616 96.9728 104.3968 123.6992zM975.6672 696.4736l-94.5664 74.3424-258.7136-378.9824c48.3328-27.2384 85.6064-71.7312 103.4752-125.184l256.5632 387.7376a31.39584 31.39584 0 0 1-6.7584 42.0864zM526.4896 314.4192l27.3408-54.2208c2.2528-4.4544 6.5536-7.5264 11.5712-8.2432l61.0816-8.704c12.5952-1.792 17.6128-16.9472 8.4992-25.6512l-44.1856-42.1888a14.7456 14.7456 0 0 1-4.4032-13.312l10.4448-59.5968c2.1504-12.288-11.008-21.6576-22.272-15.8208l-54.6304 28.1088c-4.4544 2.304-9.8304 2.304-14.2848 0l-54.6304-28.1088c-11.264-5.7856-24.4224 3.584-22.272 15.8208l10.4448 59.5968c0.8704 4.864-0.8192 9.8304-4.4032 13.312l-44.1856 42.1888c-9.1136 8.704-4.096 23.8592 8.4992 25.6512l61.0816 8.704c5.0176 0.7168 9.3184 3.7888 11.5712 8.2432l27.3408 54.2208c5.4784 11.1616 21.76 11.1616 27.392 0zM530.6368 306.1248l-4.1472 8.2432c-5.632 11.1616-21.9136 11.1616-27.5456 0l-27.3408-54.2208c-2.2528-4.4544-6.5536-7.5264-11.5712-8.2432l-61.0816-8.704c-12.5952-1.792-17.6128-16.9472-8.4992-25.6512l6.7072-6.4c0.0512 0.256 0.2048 0.4608 0.256 0.7168-5.7344 14.4384 7.5776 19.8656 7.5776 19.8656s36.096 4.608 57.6 7.68c21.4528 3.072 25.1392 18.176 25.1392 18.176s11.52 21.248 19.712 41.0112c8.1408 19.8656 23.1936 7.5264 23.1936 7.5264zM586.24 163.9936c-0.2048 4.2496 1.3312 8.448 4.5056 11.4688l44.1856 42.1888c7.7824 7.4752 5.2224 19.6096-3.6352 24.064 0.0512-0.1024 2.4576-10.1376-11.0592-22.3744-13.6192-12.288-33.4848-31.4368-33.4848-31.4368s-5.8368-3.4304-0.6656-23.9104h0.1536zM596.736 102.6048l-1.1264 6.4c-2.4064-2.6624-11.264-11.0592-23.0912-4.6592-13.9776 7.5264-61.4912 30.1568-61.4912 30.1568l-61.5936-33.6384s-17.408-8.3456-20.0192 5.9904l-0.7168-4.1984c-2.1504-12.288 11.008-21.6576 22.272-15.8208l54.6304 28.1088c4.4544 2.304 9.8304 2.304 14.2848 0l54.6304-28.1088c11.2128-5.888 24.3712 3.4816 22.2208 15.7696zM67.9424 671.5392L162.304 745.0624l-17.5616 25.7536L50.1248 696.4736a31.3856 31.3856 0 0 1-6.7584-42.0352l27.2896-41.216c-27.8528 42.0352-2.7136 58.3168-2.7136 58.3168zM982.4768 654.4384c9.0112 13.6192 6.0928 31.9488-6.7584 42.0352l-94.464 74.2912-37.632-55.1424s24.8832 34.304 52.2752 13.2608c27.392-21.0432 65.8432-52.48 65.8432-52.48s21.0432-15.7184 11.2128-36.352l9.5232 14.3872zM730.0096 253.0816c-25.6512 96.5632-113.664 167.7824-218.368 167.7824-124.7744 0-225.9456-101.1712-225.9456-225.9456 0-50.7392 16.7424-97.5872 44.9536-135.2704-65.4848 183.2448 65.4848 276.0192 90.5728 290.048 198.3488 91.904 305.8176-91.392 308.7872-96.6144zM583.9872 22.4256c-62.7712-22.7328-167.0656-47.2576-253.2864 37.1712 41.216-55.04 106.9568-90.6752 180.992-90.6752 124.7744 0 225.9456 101.1712 225.9456 225.9456 0 20.1216-2.6624 39.6288-7.5776 58.1632-0.0512 0.0512-0.4608-161.0752-146.0736-230.6048zM977.2544 698.4704L882.688 772.8128a2.47808 2.47808 0 0 1-1.792 0.512c-0.0512 0-0.1536 0.0512-0.2048 0.0512H144.6912c-0.1024 0-0.1536-0.0512-0.2048-0.0512-0.3072-0.0512-0.5632-0.1024-0.8704-0.256-0.1024-0.0512-0.2048-0.1024-0.3584-0.1536-0.0512-0.0512-0.1024-0.0512-0.1536-0.1024L48.5376 698.4704c-13.824-10.8544-17.0496-30.8224-7.3216-45.4656l254.2592-384.256a227.4304 227.4304 0 0 1-12.288-73.8304c0-126.0032 102.5024-228.5056 228.5056-228.5056 126.0032 0 228.5056 102.5024 228.5056 228.5056 0 24.9344-4.0448 48.896-11.4688 71.3216l255.8976 386.7648c9.6768 14.6432 6.4512 34.6112-7.3728 45.4656zM511.6928 423.424c-39.1168 0-75.9296-9.8816-108.1344-27.2384L249.4976 621.8752h526.848l-154.7264-226.7136a226.8928 226.8928 0 0 1-109.9264 28.2624zM149.5552 768.256h726.7328l-96.4096-141.2608H245.9648L149.5552 768.256z m148.0192-493.4144L45.5168 655.8208c-8.2432 12.4416-5.4784 29.3888 6.2464 38.6048l92.416 72.6528 98.4064-144.128L399.0016 393.728a228.49024 228.49024 0 0 1-97.8432-109.8752c-0.2048-0.4608-0.3584-0.9728-0.5632-1.4848-1.024-2.4576-2.048-5.0176-3.0208-7.5264z m214.1184-303.3088c-123.1872 0-223.3856 100.1984-223.3856 223.3856 0 26.1632 4.5568 51.3024 12.9024 74.7008 0.6656 1.8432 1.3312 3.6352 2.048 5.4272 0.6144 1.6384 1.28 3.2768 1.9456 4.864 0.5632 1.4336 1.1776 2.816 1.8432 4.2496 0.8704 2.048 1.792 4.0448 2.7648 6.0928 0.4608 0.9728 0.9216 1.8944 1.3824 2.8672 1.2288 2.5088 2.5088 4.9664 3.7888 7.424l0.768 1.3824c37.9904 69.2736 111.616 116.3776 196.0448 116.3776 41.8304 0 80.9984-11.5712 114.5344-31.6928 0.5632-0.3584 1.1264-0.6656 1.6896-1.024 2.8672-1.7408 5.6832-3.5328 8.448-5.4272 0.0512-0.0512 0.1024-0.0512 0.1536-0.1024a224.90112 224.90112 0 0 0 71.424-78.592c0.1536-0.3072 0.3072-0.6144 0.4608-0.8704 1.4336-2.6624 2.816-5.3248 4.1472-8.0384 0.512-1.0752 1.024-2.2016 1.536-3.2768 0.9216-1.9456 1.792-3.8912 2.6624-5.8368 0.7168-1.6896 1.4336-3.3792 2.0992-5.0688 0.5632-1.4336 1.1264-2.816 1.6896-4.2496 0.8192-2.0992 1.536-4.1984 2.304-6.3488 7.8848-22.8352 12.2368-47.36 12.2368-72.8576-0.1024-123.1872-100.352-223.3856-223.488-223.3856z m214.9376 300.8512c0 0.0512 0 0.0512-0.0512 0.1024-0.6656 1.792-1.3312 3.5328-2.048 5.3248-0.6656 1.6384-1.28 3.328-1.9456 4.9664-0.512 1.2288-1.0752 2.4576-1.6384 3.6864-0.9728 2.2016-1.9456 4.352-2.9696 6.5536-0.4096 0.8192-0.768 1.5872-1.1776 2.4064-1.28 2.6112-2.6112 5.2224-3.9936 7.8336-0.2048 0.3584-0.4096 0.768-0.6144 1.1264a228.15232 228.15232 0 0 1-72.5504 79.7696 4.42368 4.42368 0 0 1-0.8192 0.512c-2.56 1.7408-5.2224 3.4304-7.8336 5.0176-0.6144 0.3584-1.2288 0.768-1.8432 1.1264-1.024 0.6144-1.9968 1.28-3.0208 1.8432l157.184 230.2976 98.4064 144.128 92.416-72.6528c11.7248-9.216 14.4384-26.1632 6.2464-38.6048l-253.7472-383.4368zM626.7904 245.8112l-61.0816 8.704c-4.1472 0.6144-7.7824 3.1744-9.6256 6.8096l-27.3408 54.2208c-3.0208 6.0416-9.1648 9.7792-16.0256 9.7792-6.8608 0-13.0048-3.7376-16.0256-9.7792l-27.2896-54.2208c-1.8432-3.6864-5.4784-6.2464-9.6256-6.8096l-61.0816-8.704c-6.8608-0.9728-12.4416-5.632-14.4896-12.1344-2.048-6.4-0.256-13.2096 4.608-17.92l44.1856-42.1888c3.0208-2.8672 4.352-6.9632 3.6352-11.008l-10.4448-59.5968a17.3568 17.3568 0 0 1 6.912-17.0496c3.1744-2.3552 6.912-3.5328 10.7008-3.5328 2.816 0 5.6832 0.6656 8.3456 2.048l54.6304 28.1088c3.7376 1.9456 8.192 1.9456 11.9296 0l54.6304-28.1088c6.1952-3.1744 13.4656-2.6112 19.0464 1.4848a17.4592 17.4592 0 0 1 6.912 17.0496l-10.4448 59.5968c-0.7168 4.0448 0.6656 8.1408 3.6864 11.008l44.1856 42.1888c4.864 4.6592 6.656 11.52 4.608 17.8688a17.73056 17.73056 0 0 1-14.5408 12.1856z m6.3488-26.3168l-44.1856-42.1888a17.408 17.408 0 0 1-5.1712-15.5648l10.4448-59.5968c0.8192-4.7104-1.024-9.1648-4.9152-12.032-3.9936-2.9696-9.216-3.3792-13.6704-1.0752l-54.6304 28.1088a18.17088 18.17088 0 0 1-16.5888 0l-54.6304-28.1088c-4.4544-2.2528-9.6768-1.8432-13.6704 1.0752-3.8912 2.8672-5.7344 7.3728-4.9152 12.032l10.4448 59.5968c1.024 5.7344-0.9216 11.52-5.1712 15.5648l-44.1856 42.1888a12.0832 12.0832 0 0 0-3.2768 12.6464c1.4848 4.7104 5.376 7.8848 10.3424 8.6016l61.0816 8.704c5.8368 0.8192 10.8544 4.4032 13.4656 9.6256l27.2896 54.2208c2.2016 4.352 6.5024 6.9632 11.4688 6.9632 4.9664 0 9.2672-2.6112 11.4688-6.9632l27.3408-54.2208a17.9968 17.9968 0 0 1 13.4656-9.6256l61.0816-8.704c4.9664-0.7168 8.8576-3.9424 10.3424-8.6016 1.536-4.5568 0.3072-9.2672-3.2256-12.6464z"  horiz-adv-x="1024" />

    
    <glyph glyph-name="xiangshang1" unicode="&#58953;" d="M916.48 184.608l-370.56 389.76a47.104 47.104 0 0 1-64.256 3.392l-3.552-3.392L107.52 184.64a3.2 3.2 0 0 1 2.304-5.408h86.4a6.4 6.4 0 0 1 4.608 1.984L512 508.384l311.136-327.2a6.4 6.4 0 0 1 4.64-1.984h86.4a3.2 3.2 0 0 1 2.304 5.408z"  horiz-adv-x="1024" />

    
    <glyph glyph-name="up-fill" unicode="&#58885;" d="M901.3 134.49400000000003c46.365 0 72.696 61.253 38.931 95.029L550.973 618.779c-22.322 22.322-55.522 22.322-77.854 0L83.881 229.51099999999997c-34.645-34.646-5.72-95.028 39.496-95.028l777.922 0.011z"  horiz-adv-x="1024" />

    
    <glyph glyph-name="LV2" unicode="&#58984;" d="M178.086957-105.73913C92.16-105.73913 22.26087-35.84 22.26087 50.086957V717.913043C22.26087 803.84 92.16 873.73913 178.086957 873.73913h1647.304347c85.926957 0 155.826087-69.89913 155.826087-155.826087v-667.826086c0-85.926957-69.89913-155.826087-155.826087-155.826087H178.086957zM1825.391304 851.478261c73.46087 0 133.565217-60.104348 133.565218-133.565218v-667.826086c0-73.46087-60.104348-133.565217-133.565218-133.565218H178.086957c-73.46087 0-133.565217 60.104348-133.565218 133.565218V717.913043c0 73.46087 60.104348 133.565217 133.565218 133.565218h1647.304347m0 44.521739H178.086957C79.693913 896 0 816.306087 0 717.913043v-667.826086c0-98.393043 79.693913-178.086957 178.086957-178.086957h1647.304347c98.393043 0 178.086957 79.693913 178.086957 178.086957V717.913043c0 98.393043-79.693913 178.086957-178.086957 178.086957zM508.883478 154.267826V621.30087h89.488696v-386.893913h244.869565v-80.139131zM587.241739 610.170435v-386.893913h244.869565v-57.878261h-312.097391v445.217391h67.227826m22.26087 21.815652h-111.749566v-489.73913h356.619131v102.4h-244.869565v387.33913zM999.513043 154.267826L831.666087 621.30087h97.502609l119.318261-348.16 118.873043 348.16h97.502609l-167.401739-467.033044zM1248.834783 610.170435l-159.387826-445.217392h-82.365218l-159.387826 445.217392h73.46087l126.441739-369.085218h1.780869l125.996522 369.085218h73.46087m32.055652 22.260869h-121.544348l-5.342609-15.137391-105.961739-310.316522-106.406956 310.316522-5.342609 15.137391H815.193043l10.685218-29.829565 159.387826-445.217391 5.342609-14.692174H1104.13913l5.342609 14.692174 159.387826 445.217391 12.02087 29.829565zM1274.657391 154.267826v11.130435c0 47.193043 16.027826 88.598261 47.193044 123.770435 16.027826 18.69913 49.41913 45.857391 102.4 82.810434 29.384348 20.925217 50.309565 37.843478 61.885217 49.864348 18.253913 20.48 27.603478 41.850435 27.603478 65.001739 0 21.815652-5.342609 37.398261-16.91826 47.638261-11.575652 10.685217-29.384348 15.582609-52.98087 15.582609-24.932174 0-42.74087-8.013913-54.761739-24.041739-13.356522-16.473043-20.48-41.850435-21.370435-75.241739l-0.445217-10.685218h-89.933913v11.130435c0.890435 52.535652 16.473043 95.276522 45.857391 126.886957 30.274783 34.281739 71.234783 51.645217 122.88 51.645217 45.857391 0 83.70087-13.356522 112.64-39.624348 29.384348-26.713043 44.076522-61.885217 44.076522-103.735652 0-40.514783-15.582609-78.358261-46.302609-112.64-18.253913-18.69913-49.864348-43.186087-94.386087-73.46087-35.617391-23.596522-60.549565-44.966957-73.46087-63.666087h215.04v-81.92h-329.015652zM1446.066087 619.074783c43.186087 0 78.358261-12.466087 105.516522-36.953044 27.158261-24.932174 40.514783-56.987826 40.514782-96.166956 0-37.843478-14.692174-73.015652-43.631304-105.516522-17.363478-17.808696-48.083478-41.850435-92.16-71.68-47.638261-31.610435-76.577391-59.65913-85.926957-84.146087h222.608696v-59.659131h-306.754783c0 44.521739 14.692174 83.255652 44.076522 116.646957 15.137391 18.253913 48.973913 45.412174 100.173913 81.029565 30.274783 21.815652 51.645217 38.733913 63.666087 51.2 20.48 22.706087 30.72 47.193043 30.72 73.015652 0 24.932174-6.678261 43.631304-20.48 56.097392-13.801739 12.466087-33.836522 18.69913-60.549565 18.69913-28.048696 0-49.41913-9.349565-63.666087-28.493913-14.692174-18.253913-22.26087-45.412174-23.596522-81.474783h-68.118261c0.890435 49.864348 15.137391 89.933913 43.186087 119.763479 28.048696 31.610435 66.337391 47.638261 114.42087 47.638261m0 22.260869c-54.761739 0-98.838261-18.69913-131.33913-55.652174-31.165217-33.391304-47.638261-78.803478-48.528696-134.010435l-0.445218-22.706086h112.194783l0.445217 21.815652c0.890435 31.165217 7.568696 54.316522 18.699131 68.563478 10.24 14.246957 24.932174 20.48 46.302609 20.48 20.925217 0 36.062609-4.452174 45.412174-12.911304 8.904348-8.013913 13.356522-20.925217 13.356521-39.624348 0-20.48-8.013913-39.17913-24.932174-58.323478-10.685217-10.685217-30.72-27.158261-59.65913-47.638261-53.426087-36.953043-87.707826-65.001739-104.626087-85.036522-32.50087-36.953043-49.41913-81.029565-49.41913-130.893913v-22.26087h351.276521v104.18087h-201.683478c12.02087 12.02087 29.384348 26.267826 55.206957 43.186087 45.857391 31.165217 77.022609 55.652174 95.721739 74.796522 33.391304 37.398261 49.864348 77.467826 49.864347 121.09913 0 45.412174-16.027826 83.255652-47.63826 112.194783-31.165217 28.493913-71.68 42.74087-120.208696 42.740869z"  horiz-adv-x="2003" />

    
    <glyph glyph-name="ziyuan" unicode="&#59045;" d="M1022.293364 425.590082a511.990827 511.990827 0 1 1-551.883445-551.883446 513.484133 513.484133 0 0 1 551.883445 551.883446zM625.073814 346.231503l100.264871-100.05154A53.332378 53.332378 0 1 0 649.820038 170.661316l-100.051541 100.26487a53.759037 53.759037 0 0 1-75.518647 0L374.198309 170.661316A53.332378 53.332378 0 1 0 298.679662 246.179963l100.264871 100.05154a53.759037 53.759037 0 0 1 0 75.518647L298.679662 521.801691A53.332378 53.332378 0 0 0 374.198309 597.320338l100.051541-100.26487a53.759037 53.759037 0 0 1 75.518647 0l100.051541 100.26487A53.332378 53.332378 0 1 0 725.338685 521.801691l-100.264871-100.051541a53.759037 53.759037 0 0 1 0-75.518647z"  horiz-adv-x="1024" />

    
    <glyph glyph-name="002-drum" unicode="&#58989;" d="M512 896C229.229714 896 0 666.770286 0 384S229.229714-128 512-128c73.303565 0 142.989135 15.436233 206.036217 43.185191V852.814809C654.989135 880.563767 585.303565 896 512 896zM718.036217 852.814809a510.821473 510.821473 0 0 1-71.999356-38.839887C505.239952 722.742085 412.072435 564.261087 412.072435 384s93.167517-338.742085 233.964426-429.974922a511.043992 511.043992 0 0 1 71.999356-38.841947C898.194286-5.521771 1024 174.53328 1024 384S898.194286 773.521771 718.036217 852.814809zM830.332137 702.332137c-52.409433 52.407372-115.472998 90.278889-184.295276 111.642785h-164.828974L247.243461 384l233.964426-429.974922h164.828974c68.824338 21.363895 131.887903 59.233352 184.295276 111.642785C915.361223 150.69901 962.189135 263.751082 962.189135 384s-46.827911 233.30099-131.856998 318.332137zM193.667863 702.332137C108.638777 617.30099 61.810865 504.248918 61.810865 384s46.827911-233.30099 131.856998-318.332137C278.69901-19.361223 391.751082-66.189135 512-66.189135c46.133569 0 91.197811 6.918696 134.036861 20.214213C505.239952 45.257915 412.072435 203.740974 412.072435 384S505.239952 722.742085 646.036861 813.974922C603.197811 827.270439 558.133569 834.189135 512 834.189135c-120.248918 0-233.30099-46.827911-318.332137-131.856998zM861.536322 380.621006c-35.316668 30.870406-83.467332 40.964121-127.072837 38.745111 49.347734 20.403767 91.220475 49.071646 111.300764 96.729883 21.172282 50.252233-15.050946 107.555026-70.668362 109.497948l-8.626736 0.300813 0.300813 8.624676c1.942922 55.668926-52.73497 95.734728-104.299654 78.135114-47.114302-16.081127-77.131718-52.743211-100.5807-97.123412H512v-417.538576h101.20705c48.950085-48.156845 109.042608-81.796378 169.722334-74.548024 53.808419 6.42627 85.702825 66.858753 59.517682 116.10759l-4.050672 7.619219 7.62128 4.052732c49.09431 26.108909 56.60433 93.482753 15.518648 129.396926zM561.887549 615.53526c2.280821 43.830085-3.75604 83.838197-30.49336 119.119839-32.93695 43.46128-100.671356 40.737481-130.159259-6.455115l-4.574004-7.320467-7.320467 4.574004c-47.239984 29.518809-109.275429 2.198406-119.818302-51.25769-3.894085-19.744451-3.778704-40.611799 1.044604-61.491509 7.920032-34.309151 30.244056-76.021183 59.441448-110.806278-169.848016 68.997408-230.653425-55.405199-172.250398-118.038149l5.886455-6.312949-6.31295-5.886455c-48.830584-45.536064-29.285988-140.160258 78.16602-143.910117 44.573875-1.555573 106.60726 16.128515 153.99559 45.824515-32.930769-45.202286-54.90041-105.851107-56.455984-150.424982-3.764282-107.655984 89.415598-133.416692 138.106076-88.014551l6.31295 5.886455 5.886455-6.31295c58.452475-62.682398 186.53695-10.559356 129.864627 163.283702-107.573569 112.514318-128.447099 282.331429-51.319501 417.542697zM347.486262 226.98598l-41.207244 41.207243L47.759195 9.6734v-115.648128l18.038471-18.038471A93.054197 93.054197 0 0 1 92.716298-128c23.729191 0 47.456322 9.053231 65.560724 27.155573l258.519823 258.519823zM88.966439-31.533843l258.519823 258.519823-61.810866 61.810865L27.155573 30.277022c-36.208805-36.208805-36.208805-94.912644 0-131.121449a92.289803 92.289803 0 0 1 38.642093-23.168772c-9.576563 31.667767-1.862567 67.448016 23.168773 92.479356zM471.641626 304.097095H318.325956v-85.987155a65.329964 65.329964 0 0 1 19.134583-46.19332l10.470761-10.470761 34.226736-34.226736c38.384547-38.384547 103.926728-20.82202 117.976338 31.612137l24.676958 92.096128zM379.543437 279.420137l92.096128 24.676958-92.716297 92.716297-92.096129-24.676957c-52.434157-14.04961-69.996684-79.591791-31.612137-117.976338l92.714237-92.714238c-38.380427 38.382487-20.817899 103.924668 31.614198 117.974278zM594.414487 538.537465h-82.414487l-92.716298-154.537465 92.716298-154.537465h82.414487c55.168258 29.481722 92.716298 87.616901 92.716298 154.537465s-37.54804 125.055742-92.716298 154.537465zM501.698189 384c0 66.922624 37.54804 125.055742 92.716298 154.537465-24.565698 13.128628-52.613408 20.59332-82.414487 20.59332-96.721642 0-175.130785-78.409143-175.130785-175.130785s78.409143-175.130785 175.130785-175.130785c29.801078 0 57.848789 7.464692 82.414487 20.59332-55.168258 29.481722-92.716298 87.614841-92.716298 154.537465zM385.58088 412.908221a39.748507 49.912274 45 1 1 56.212878 56.212878 39.748507 49.912274 45 1 1-56.212878-56.212878ZM540.779825 257.681578a39.748507 49.912274 45 1 1 56.212878 56.212878 39.748507 49.912274 45 1 1-56.212878-56.212878ZM479.091895 489.348378a15.452716 15.452716 0 0 1-21.852201 0l-17.482173-17.482173a15.452716 15.452716 0 0 1 10.926101-26.378817 15.399147 15.399147 0 0 1 10.9261 4.526616l17.482173 17.482173a15.446535 15.446535 0 0 1 0 21.852201zM617.348378 351.091895a15.452716 15.452716 0 0 1-21.852201 0l-17.482173-17.482173a15.452716 15.452716 0 0 1 10.926101-26.378817 15.399147 15.399147 0 0 1 10.9261 4.526616l17.482173 17.482173a15.452716 15.452716 0 0 1 0 21.852201zM543.259815 383.760998c-8.53196-0.593384-16.89703 2.536306-22.929771 8.569046s-9.156249 14.389569-8.569046 22.929771a15.452716 15.452716 0 0 1-14.358664 16.474656c-8.501054 0.601626-15.889513-5.843187-16.474656-14.358664a60.442785 60.442785 0 0 1 17.550165-46.900024 60.428362 60.428362 0 0 1 46.900024-17.550165 15.452716 15.452716 0 0 1-2.118052 30.83538z"  horiz-adv-x="1024" />

    
    <glyph glyph-name="003-sakura" unicode="&#58988;" d="M944.835302 542.413006l-10.800419 2.486857 2.493038 10.773634c16.074946 69.444507-42.954431 133.255984-112.324764 123.724748-56.315879-7.73872-98.122688-38.501988-135.84998-80.263468H335.648018V133.315734H512.000598c16.064644-69.811252 78.722318-142.008402 120.60948-180.96573 100.970109-93.915429 204.639292-25.921416 201.645586 59.540346l-0.387348 11.047662 11.076507 0.385288c109.901779 3.828153 167.64961 171.560177-49.226173 262.896032 58.096032 5.060249 116.241513 22.618656 154.584853 46.518857 23.337722 14.542036 42.389891 33.33666 56.783581 54.743823 38.96763 57.955928 7.446149 138.882833-62.251782 154.930994zM685.213185 804.964958C654.371624 867.604089 560.783793 880.835734 512.000598 828.661183c-48.783195 52.174551-142.371026 38.942905-173.212588-23.696225-28.177513-57.23068-22.142712-144.404604-3.139992-205.832242-37.727292 41.761481-79.536161 72.524748-135.84998 80.263469-69.370334 9.531235-128.39971-54.278181-112.324764-123.724748l2.493038-10.773634-10.800419-2.486857c-69.697932-16.048161-101.219412-96.975066-62.253843-154.933055 14.39369-21.407163 33.445859-40.201787 56.783582-54.743823 38.34334-23.898141 96.490881-41.456547 154.584853-46.518857-216.873722-91.331734-159.125891-259.063759-49.226173-262.891911l11.076507-0.385288-0.387348-11.047662c-2.991646-85.461763 100.675477-153.455775 201.645585-59.540346 41.887163 38.957328 104.544837 111.154479 120.609481 180.96573a430.852636 430.852636 0 0 0-10.363622 58.300008l137.43852 367.968322a440.163412 440.163412 0 0 0 49.277682 39.548652c19.004781 61.427638 25.039581 148.601561-3.137932 205.832242zM327.043946 427.360322l-137.04087 78.227831a15.452716 15.452716 0 0 1-15.320853-26.838278l137.040869-78.227831zM855.077684 499.829441a15.450656 15.450656 0 0 1-21.079565 5.758712l-137.04087-78.227831 15.320854-26.840338 137.040869 78.227831a15.452716 15.452716 0 0 1 5.758712 21.081626zM274.210078 116.787509a15.452716 15.452716 0 0 1 22.2993-21.396861l117.115107 122.062036-22.30136 21.396861zM632.667769 238.857787l-22.301361-21.396861 117.123348-122.068218a15.452716 15.452716 0 0 1 22.2993 21.396861zM512.000598 735.635831a15.452716 15.452716 0 0 1-15.452717-15.452716V587.975855h30.905433V720.183115a15.452716 15.452716 0 0 1-15.452716 15.452716zM639.075495 559.582004H501.636976v-367.968322c3.434624-0.17101 6.887791-0.259606 10.363622-0.259606 113.789682 0 206.036217 92.244475 206.036217 206.036218 0 65.845054-30.886889 124.47472-78.96132 162.19171zM512.000598 603.428571c-113.789682 0-206.036217-92.244475-206.036218-206.036217 0-110.313851 86.69592-200.378463 195.672596-205.776612 0 137.415855 34.478101 272.423147 137.438519 367.968322C604.067881 587.048692 559.947286 603.428571 512.000598 603.428571zM382.069006 323.075119a32.815388 41.207243 89.89 1 1 0.126002 65.630656 32.815388 41.207243 89.89 1 1-0.126002-65.630656ZM641.875527 388.048612c-22.758761 0.049449-41.238149-14.601787-41.279356-32.724733-0.039147-18.122946 18.37637-32.856596 41.135131-32.906044s41.240209 14.601787 41.279356 32.724732-18.37637 32.854535-41.135131 32.906045zM399.638746 419.120934a15.452716 15.452716 0 0 1-15.452716-15.452717v-24.724346a15.452716 15.452716 0 0 1 30.905433 0v24.724346a15.452716 15.452716 0 0 1-15.452717 15.452717zM624.006006 419.120934a15.452716 15.452716 0 0 1-15.452716-15.452717v-24.724346a15.452716 15.452716 0 0 1 30.905432 0v24.724346a15.452716 15.452716 0 0 1-15.452716 15.452717zM565.767809 378.156813a15.452716 15.452716 0 0 1-15.452717-15.452716c0-6.249078-5.082913-11.331992-11.331991-11.331992s-11.331992 5.082913-11.331992 11.331992a15.452716 15.452716 0 0 1-30.905433 0c0-6.249078-5.082913-11.331992-11.331992-11.331992s-11.331992 5.082913-11.331992 11.331992a15.452716 15.452716 0 0 1-30.905433 0c0-35.565972 41.547203-55.221827 69.022133-32.629956 27.470809-22.589811 69.022133-2.940137 69.022133 32.629956a15.452716 15.452716 0 0 1-15.452716 15.452716z"  horiz-adv-x="1024" />

    
    <glyph glyph-name="solid-time" unicode="&#58939;" d="M512 841.712c-252.823 0-457.712-204.847-457.712-457.67 0-252.781 204.93-457.753 457.712-457.753s457.712 204.972 457.712 457.753c0 252.823-204.972 457.67-457.712 457.67zM638.786 192.011l-168.397 150.379v374.492h83.22v-332.881l143.763-122.375-58.588-69.614z"  horiz-adv-x="1024" />

    
    <glyph glyph-name="dianzan1" unicode="&#58919;" d="M151.272727 498.036364H69.818182c-25.6 0-46.545455-20.945455-46.545455-46.545455V-81.454545c0-25.6 20.945455-46.545455 46.545455-46.545455h81.454545c25.6 0 34.909091 20.945455 34.909091 46.545455V453.818182c0 25.6-9.309091 44.218182-34.909091 44.218182zM907.636364 477.090909H605.090909c95.418182 90.763636 165.236364 418.909091-20.945454 418.909091-141.963636 0-114.036364-134.981818-158.254546-221.090909-39.563636-76.8-102.4-125.672727-144.290909-151.272727-27.927273-16.290909-46.545455-34.909091-46.545455-67.490909v-488.727273c0-51.2 44.218182-93.090909 95.418182-93.090909h481.745455c44.218182 0 81.454545 39.563636 90.763636 81.454545 32.581818 141.963636 67.490909 293.236364 100.072727 430.545455 11.636364 53.527273-34.909091 90.763636-95.418181 90.763636z"  horiz-adv-x="1024" />

    
    <glyph glyph-name="truck_fill" unicode="&#58952;" d="M910.084 103.477C898.873 171.838 839.533 224 768 224c-74.12 0-135.15-56.002-143.111-128H608V640h144c92 0 90.5-26.5 128-80l80-134v-234c0-46.146-16.643-75.649-49.916-88.523zM832 416h-64v80c0 17.673-14.327 32-32 32s-32-14.327-32-32v-112c0-17.673 14.327-32 32-32h96c17.673 0 32 14.327 32 32s-14.327 32-32 32zM304 224c-72.844 0-133.044-54.091-142.652-124.296C105.46 113.44 64 163.874 64 224V672c0 70.692 57.308 128 128 128h272c70.692 0 128-57.308 128-128v-576H447.111C439.15 167.998 378.12 224 304 224z m0-32c61.856 0 112-50.144 112-112s-50.144-112-112-112-112 50.144-112 112 50.144 112 112 112z m464 0c61.856 0 112-50.144 112-112s-50.144-112-112-112-112 50.144-112 112 50.144 112 112 112z"  horiz-adv-x="1024" />

    
    <glyph glyph-name="badge-full" unicode="&#59511;" d="M512 788c-187.8 0-340-152.2-340-340s152.2-340 340-340 340 152.2 340 340-152.2 340-340 340z m139-405.1c-1.9-1.8-2.7-4.5-2.3-7.1l25.9-151.1c2.3-13.1-11.5-23-23.2-16.9l-135.7 71.3c-2.3 1.2-5.1 1.2-7.4 0l-135.7-71.3c-11.7-6.2-25.5 3.8-23.2 16.9l25.9 151.1c0.4 2.6-0.4 5.2-2.3 7.1l-109.8 107c-9.5 9.3-4.3 25.4 8.9 27.3l151.7 22c2.6 0.4 4.9 2 6 4.4l67.8 137.5c5.9 11.9 22.8 11.9 28.7 0l67.8-137.5c1.2-2.4 3.4-4 6-4.4l151.7-22c13.1-1.9 18.4-18 8.9-27.3L651 382.9zM960 448c0 34.1-27.5 64.5-34.6 96.4-7.3 32.9 4.4 72.5-9.7 102.3-14.3 30.2-52 45.5-72.3 71.4-20.4 26.1-26.6 67-52.1 87.9C766 826.7 725.5 823.9 696 838.4c-29.1 14.3-52 48.5-84.3 56C607 895.5 602.2 896 597.4 896c-27.4 0-57-14.8-85.4-14.8S454 896 426.6 896c-4.8 0-9.6-0.5-14.3-1.5-32.2-7.5-55.2-41.7-84.3-56-29.5-14.6-70-11.8-95.4-32.5-25.5-20.8-31.8-61.8-52.1-87.9-20.3-25.9-58-41.2-72.3-71.4-14-29.7-2.3-69.3-9.7-102.3-7-31.9-34.5-62.3-34.5-96.4 0-34.1 27.5-64.5 34.6-96.4 7.3-32.9-4.4-72.5 9.7-102.3 10.2-21.6 32.5-35.6 51.7-51.3 7.6-6.2 14.8-12.7 20.5-20.1l0.1-0.1c5-6.3 6.7-14.7 4.6-22.4l-56.6-211.2c-1.4-5.1 2.5-10.1 7.7-10.1h0.8l112.6 11c1 0.1 2.1 0.2 3.1 0.2 6.7 0 13.2-2.1 18.6-6l92.1-65.8c1.4-1 3-1.5 4.6-1.5 3.4 0 6.8 2.2 7.8 5.9l32.5 121.4c0.5 1.7 2.2 2.7 3.9 2.3 4.7-1.1 9.5-1.5 14.3-1.5 27.4 0 57 14.8 85.4 14.8s58-14.8 85.4-14.8c4.8 0 9.6 0.5 14.3 1.5 1.2 0.3 2.4-0.4 2.7-1.6l32.7-122c1-3.7 4.3-5.9 7.8-5.9 1.6 0 3.2 0.5 4.6 1.5l92.1 65.8c5.5 3.9 12 6 18.6 6 1 0 2.1 0 3.1-0.2l112.6-11h0.8c5.2 0 9.1 4.9 7.7 10.1l-56 208.9c-2.3 8.6-0.5 17.8 5 24.8 2.9 3.7 6.1 7.2 9.6 10.5s7.2 6.5 11 9.6c19.3 15.7 41.5 29.7 51.7 51.3 14 29.7 2.3 69.3 9.7 102.3 7.1 31.8 34.6 62.2 34.6 96.3zM809 224c-5.5-7.2-11.2-14.3-17.2-21.1-13.6-15.5-28.4-29.9-44.4-42.9-13.7-11.2-28.2-21.5-43.5-30.7-10-6.1-20.4-11.7-31-16.8-13-6.3-26.5-11.8-40.4-16.6-7.8-2.7-15.6-5.1-23.6-7.2-5.7-1.5-11.5-2.9-17.3-4.2C566 79 539.4 76 512 76c-27.7 0-54.7 3-80.7 8.8-5.5 1.2-10.9 2.5-16.3 4-8 2.1-15.9 4.5-23.6 7.2-13.8 4.7-27.3 10.3-40.4 16.5-10.1 4.9-19.9 10.2-29.5 15.9-15.8 9.4-30.8 20-45 31.6-15.8 13-30.6 27.2-44.1 42.6-6.1 6.9-11.9 14.1-17.5 21.4-47.1 62.3-75 139.9-75 224 0 205.5 166.5 372 372 372s372-166.5 372-372c0.1-84.1-27.8-161.7-74.9-224z"  horiz-adv-x="1024" />

    
    <glyph glyph-name="xianmiaogaogenxie" unicode="&#58912;" d="M670.20694309 471.03530172c-6.04802067 26.86907648-28.35629382 48.5824627-44.41825153 62.36401875-0.79318302 1.28892257-1.78466212 2.47869644-2.87528861 3.56932425l-2.57784383 2.67699251-0.69403563 0.69403563c-5.45313372 4.56080203-12.09604133 6.54376021-18.73895024 6.24631544-7.23779584 0.39659216-14.57473907-1.9829582-20.42446365-6.94035107-27.95970298-23.8946392-94.19048813-86.95269359-106.28652947-155.86047127-9.61734489-54.72963076-19.1355411-74.75750356-26.96822518-82.78848243-1.9829582-0.99147909-4.16421117-1.58636603-6.74205499-2.37954905-6.04802067-1.8838095-18.54065415-1.18977517-30.5375481-0.49573955-12.79007696 0.69403563-26.57163301 1.38806995-39.06426651-0.09914739 1.68551343 3.66847162 2.67699252 7.73353539 2.67699382 12.09604134 0 15.66536556-12.69092956 28.35629382-28.35629513 28.35629383s-28.35629382-12.69092956-28.35629383-28.35629383c0-8.82416187 4.06506377-16.75599204 10.41052791-22.0108297-44.12080807-13.78155605-59.48873017-42.73273682-62.26487137-48.58246271-1.9829582-3.47017554-3.37102815-9.02245796-2.08210558-15.46706948 2.28040165-10.80711877 11.40200701-21.21764667 27.36481603-30.93413897 18.54065415-11.30285831 54.3330399-14.97132993 90.52201652-14.97133122 34.90005405 0 70.09755285 3.47017554 90.42286912 6.7420563 50.96201177 8.22927363 63.0580531 58.19980761 70.98988456 91.21605213 0.99147909 3.96591508 1.8838095 7.83268278 2.77613991 11.30285833 4.36250724 16.45854858 21.71338622 33.4128367 36.2881253 44.91399109l3.66847162-129.8837265c0.19829607-6.04802067 5.15569026-10.90626746 11.30285832-10.90626745h27.46396342c6.14716935 0 11.20371092 4.95739419 11.30285962 11.10456353 0 1.28892257 1.68551343 127.9007683 5.5522811 156.05876736 1.18977517 9.02245796 6.64290761 20.32531627 12.29433742 32.3222089 10.80711877 22.30827316 24.09293527 50.26797614 17.35087898 80.01234123zM411.72841398 272.04550145999997c9.91478836-1.38806995 18.44150676-2.67699252 31.92561805 1.38807126 23.39889966 7.03949977 38.66767435 26.07589346 52.84582127 106.38567815 10.80711877 61.66998314 72.67539798 120.2663816 98.75129144 142.67380217 2.47869644 2.08210558 6.04802067 2.08210558 8.62586581 0l0.19829477-0.1982948c2.18125297-1.78466212 4.56080203-3.86676769 7.13864845-6.04802196-0.19829607-0.39659216-0.49573955-0.79318302-0.79318301-1.18977388-5.05654157-6.54376021-12.19519003-14.47559038-20.42446496-23.69634441-29.05032946-32.61965367-68.90777898-77.33534869-80.30978468-124.72803624-2.08210558-8.62586579-3.86676769-17.54917507-5.55228112-26.27418824-5.75057719-29.05032946-11.60030178-59.19128541-27.8605543-67.12311688-23.79549181-11.5011544-87.25013706-14.27729561-112.13625535-7.6343867-1.78466212 1.8838095-3.56932422 4.16421117-4.75909939 6.14716806 28.25714643 3.76761901 41.54296295 1.8838095 52.35008302 0.29744347z m-66.42908125 54.82877946c9.31990142 0 16.95428812-7.53523932 16.95428683-16.95428812 0-9.31990142-7.53523932-16.95428812-16.95428683-16.95428812-9.31990142 0-16.95428812 7.53523932-16.95428812 16.95428812 0 9.31990142 7.63438671 16.95428812 16.95428812 16.95428812z m287.3305638 73.66687709c-6.44461282-13.58325998-12.49263348-26.47248433-14.27729561-38.96511783-3.37102815-24.68782222-5.05654157-115.60643089-5.55228112-147.63119763h-5.45313372l-3.96591508 139.89766225c-0.09914739 3.96591508-2.37954905 7.63438671-5.84972588 9.61734489s-7.83268278 1.78466212-11.20371094-0.29744347c-2.18125297-1.28892257-52.94496866-32.52050499-62.85975701-70.09755286-0.99147909-3.76761901-1.8838095-7.63438671-2.87528861-11.69945047-9.31990142-38.76682174-19.23468978-68.80863029-52.74667387-74.26176403-51.75519477-8.42756972-139.79851486-10.41052791-165.67611094 5.25483766-15.36792208 9.41904881-16.95428812 15.46706947-17.05343681 16.65684465 0.19829607 0.29744348 0.29744348 0.59488694 0.39659216 0.99147909 0.49573955 1.18977517 12.49263348 27.95970298 55.62196246 38.56852566 3.17273207-8.62586579 10.41052791-15.66536556 12.29433742-17.45002767 0.99147909-0.8923304 2.18125297-1.58636603 3.37102814-1.98295689 10.21223183-3.27188076 26.96822387-4.85824679 45.21143457-4.85824679 30.04180855 0 64.44612305 4.36250724 82.1935942 12.88922565 24.39037874 11.79859787 31.13243504 46.40120845 37.77534263 79.81404514 1.68551343 8.52671841 3.37102815 17.35087899 5.35398635 25.58015392 10.31137923 42.93103291 48.38416662 85.66377102 76.24472091 116.89535346 8.32842233 9.41904881 15.56621817 17.45002767 21.01935189 24.39037874 10.50967531-10.70797138 20.52361106-23.69634442 23.59719573-37.77534264 5.05654157-22.10997839-5.45313372-44.21995547-15.56621687-65.53675083z"  horiz-adv-x="1024" />

    
    <glyph glyph-name="shizhong" unicode="&#58884;" d="M510.2-63.3C262.9-63.3 61.7 138 61.7 385.3S262.9 833.9 510.2 833.9s448.6-201.2 448.6-448.6-201.2-448.6-448.6-448.6z m0 846.3C291 783 112.6 604.6 112.6 385.3S291-12.4 510.2-12.4 907.9 166 907.9 385.3 729.5 783 510.2 783zM514.5 375.6c-14.1 0-25.5 11.4-25.5 25.5V601.2c0 14.1 11.4 25.5 25.5 25.5s25.5-11.4 25.5-25.5V401c0-14-11.4-25.4-25.5-25.4zM371.6 229.8c-6.5 0-13 2.5-18 7.5s-7.5 11.5-7.5 18 2.5 13 7.5 18L494.4 414c9.9 9.9 26 9.9 36 0 5-5 7.5-11.5 7.5-18s-2.5-13-7.5-18L389.6 237.2c-5-4.9-11.5-7.4-18-7.4z"  horiz-adv-x="1024" />

    
    <glyph glyph-name="weixin1" unicode="&#58905;" d="M1024 276.48c0 143.36-138.24 256-307.2 256s-307.2-112.64-307.2-256 138.24-256 307.2-256c30.72 0 61.44 5.12 92.16 10.24l97.28-51.2-25.6 76.8c87.04 51.2 143.36 128 143.36 220.16z m-414.72 40.96c-30.72 0-51.2 20.48-51.2 51.2s20.48 51.2 51.2 51.2 51.2-20.48 51.2-51.2c0-25.6-25.6-51.2-51.2-51.2z m209.92 0c-30.72 0-51.2 20.48-51.2 51.2s20.48 51.2 51.2 51.2 51.2-20.48 51.2-51.2c0-25.6-25.6-51.2-51.2-51.2zM358.4 286.72c0 158.72 153.6 286.72 348.16 286.72h15.36C680.96 706.56 542.72 808.96 368.64 808.96 163.84 808.96 0 670.72 0 501.76c0-107.52 66.56-204.8 168.96-256l-30.72-92.16L256 209.91999999999996c35.84-10.24 71.68-15.36 112.64-15.36h10.24c-15.36 30.72-20.48 61.44-20.48 92.16z m138.24 414.72c35.84 0 66.56-30.72 66.56-66.56s-30.72-66.56-66.56-66.56c-35.84 5.12-66.56 35.84-66.56 71.68s30.72 61.44 66.56 61.44z m-250.88-128c-35.84 0-61.44 30.72-61.44 66.56s30.72 66.56 66.56 66.56 61.44-30.72 61.44-66.56-30.72-66.56-66.56-66.56z"  horiz-adv-x="1024" />

    
    <glyph glyph-name="xiangyou" unicode="&#59184;" d="M382.53 193.07c-12.05-12.93-11.33-33.18 1.6-45.23 12.29-11.45 31.34-11.45 43.63 0l213.33 213.33c12.5 12.49 12.51 32.75 0.01 45.25l-0.01 0.01-213.34 213.35c-12.72 12.27-32.98 11.91-45.25-0.81-11.97-12.41-11.96-32.07 0.02-44.46l190.72-190.72-190.71-190.72z"  horiz-adv-x="1024" />

    
    <glyph glyph-name="xiangji" unicode="&#58910;" d="M820.67 584.78h-48.82v16.27c0 8.95-7.33 16.27-16.27 16.27h-32.55c-8.95 0-16.27-7.33-16.27-16.27v-16.27h-32.55l-65.09 65.09H413.83l-65.09-65.09H202.27c-8.95 0-16.27-7.33-16.27-16.27v-423.12c0-8.95 7.33-16.27 16.27-16.27h618.4c8.95 0 16.27 7.33 16.27 16.27V568.5c0.01 8.95-7.32 16.28-16.27 16.28z m-309.2-390.57c-89.9 0-162.74 72.83-162.74 162.74s72.83 162.74 162.74 162.74c89.9 0 162.74-72.83 162.74-162.74s-72.84-162.74-162.74-162.74zM442.425177 287.896839a97.64 97.64 0 1 1 138.081403 138.086222 97.64 97.64 0 1 1-138.081403-138.086222Z"  horiz-adv-x="1024" />

    
    <glyph glyph-name="qiche" unicode="&#59142;" d="M828.586667 485.333333l-35.626667 130.346667A149.333333 149.333333 0 0 1 648.96 725.333333H375.04a149.333333 149.333333 0 0 1-144-110.08l-35.626667-129.92A149.333333 149.333333 0 0 1 85.333333 341.333333v-212.053333A87.68 87.68 0 0 1 172.8 42.666667h38.4a87.68 87.68 0 0 1 87.466667 87.466666V149.333333h426.666666v-19.413333A87.68 87.68 0 0 1 812.8 42.666667h38.613333A87.466667 87.466667 0 0 1 938.666667 129.706667V341.333333a149.333333 149.333333 0 0 1-110.08 144zM896 129.706667A44.8 44.8 0 0 0 851.413333 85.333333H812.8a44.8 44.8 0 0 0-44.8 44.8v18.56h128zM272.213333 604.586667A106.666667 106.666667 0 0 0 375.04 682.666667h273.92a106.666667 106.666667 0 0 0 102.826667-78.506667L782.72 490.666667H241.28zM256 130.346667A45.013333 45.013333 0 0 0 211.2 85.333333H172.8A45.013333 45.013333 0 0 0 128 130.346667V149.333333h128zM128 192v149.333333a105.386667 105.386667 0 0 0 105.173333 106.666667h557.653334A105.386667 105.386667 0 0 0 896 341.333333v-149.333333H128zM292.053333 394.666667a82.56 82.56 0 0 1-111.573333-33.92A81.28 81.28 0 0 1 174.293333 298.666667 80.213333 80.213333 0 0 1 213.333333 249.386667a87.253333 87.253333 0 0 1 45.44-8.533334 379.306667 379.306667 0 0 1 62.293334 5.973334 42.666667 42.666667 0 0 1 31.786666 59.52c-31.573333 72.533333-54.186667 84.266667-60.8 88.32zM234.666667 286.933333a39.68 39.68 0 0 0 18.986666 74.666667 39.253333 39.253333 0 0 0 18.56-4.693333c7.68-4.053333 23.253333-24.106667 42.666667-68.053334-47.36-7.893333-72.96-5.973333-80.213333-1.92zM730.88 394.666667c-7.253333-4.053333-29.226667-15.786667-61.866667-88.533334a42.666667 42.666667 0 0 1 1.28-37.333333 42.666667 42.666667 0 0 1 30.506667-21.333333 381.226667 381.226667 0 0 1 62.293333-5.973334 86.613333 86.613333 0 0 1 45.44 8.533334 82.346667 82.346667 0 0 1-77.653333 145.28zM789.333333 286.933333c-7.68-4.053333-33.28-5.973333-80.426666 1.92 19.626667 43.733333 35.413333 64 42.666666 68.053334a38.4 38.4 0 0 0 30.293334 2.986666 38.826667 38.826667 0 0 0 23.466666-19.2 39.68 39.68 0 0 0-16-53.76z"  horiz-adv-x="1024" />

    
    <glyph glyph-name="tubiaozhizuomoban" unicode="&#58890;" d="M826.2 72.70000000000005C887.9 110.60000000000002 928 172.10000000000002 928 241.60000000000002c0 111.8-104.1 203.1-234.7 208.2-14.1 132.3-141.7 235.8-297 235.8C231.5 685.6 98 569.1 98 425.5c0-85.8 47.7-161.9 121.1-209.3 8.2-5.3-27.3-80-18.5-84.6 14.9-7.7 74.7 55.6 91 50.2 32.5-10.6 67.8-16.4 104.6-16.4 18.4 0 36.5 1.5 54 4.3 34.6-79.6 125.1-136.5 231.3-136.5 29 0 56.9 4.2 82.7 12 8.5 2.6 65.9-48.4 74-45.1 13.1 5.3-23.7 65.5-12 72.6zM590.8 293c-14.3 0-25.9 11.7-25.9 26.2s11.6 26.2 25.9 26.2c14.3 0 25.9-11.7 25.9-26.2S605.1 293 590.8 293z m-155.6-51.4c0-7.7 0.5-15.3 1.5-22.8-13.1-1.8-26.6-2.8-40.4-2.8-34.4 0-67.2 6-96.9 16.7-3 1.1-13.5 4.3-19.3 0C267.3 223.10000000000002 250 203 250 203s6.3 14.6 8.4 35.9c1 9.7-13.8 16.6-16.7 18.6-56 38.2-91.9 101.4-91.9 167.1 0 115.2 110.3 208.6 246.4 208.6 127.1 0 231.7-81.4 245-186-116.8-16.3-206-102.1-206-205.6zM746.4 293c-14.3 0-25.9 11.7-25.9 26.2s11.6 26.2 25.9 26.2c14.3 0 25.9-11.7 25.9-26.2 0.1-14.5-11.5-26.2-25.9-26.2zM500 476.2c21.5 0 38.9 17.6 38.9 39.3 0 21.7-17.4 39.3-38.9 39.3s-38.9-17.6-38.9-39.3c0-21.7 17.4-39.3 38.9-39.3zM292.5 476.2c21.5 0 38.9 17.6 38.9 39.3 0 21.7-17.4 39.3-38.9 39.3s-38.9-17.6-38.9-39.3c0-21.7 17.4-39.3 38.9-39.3z"  horiz-adv-x="1024" />

    
    <glyph glyph-name="weixin" unicode="&#59018;" d="M512 894C230.6 894 2 665.4 2 384s228.6-510 510-510 510 228.6 510 510S793.3 894 512 894z m-93.5-644.3c-24.6 0-49.3 4.3-71.4 10.2-1.7 0-4.3 1.7-4.3 1.7l-55.3-32.3c-14.4-8.5-24.7-1.7-20.4 14.4 0 0 14.4 59.5 11.9 59.5-52.7 34.9-77.4 79.9-77.4 141.1 4.3 102.8 94.4 184.5 216.8 184.5 112.2 0 204-69.7 220.2-161.5h-10.2c-112.2 0-204-77.4-204-173.4 0-16.1 1.7-30.6 6-45h-11.9v0.8z m328.1-79.9l16.1-32.3c8.5-14.5 1.7-20.4-11.9-11.9 0 0-40.8 24.7-42.5 22.1-18.7-6-59.5-11.9-79.9-11.9-103.7 0-189.6 71.4-189.6 159s85.9 159 189.6 159S818 382.3 818 294.7c0-51.8-26.3-94.3-71.4-124.9zM353 532.7c-8.5 5.1-19.5 5.1-28.9 0-8.5-5.1-14.4-14.4-14.4-24.6s5.1-19.6 14.4-24.7c8.5-5.1 19.6-5.1 28.9 0 8.5 5.1 14.5 14.5 14.5 24.7s-6 19.6-14.5 24.6zM510.3 480c16.2 0 28.9 12.8 28.9 28.9 0 10.2-5.1 19.5-14.4 24.6-8.5 5.1-19.6 5.1-28.9 0-9.3-5.1-14.4-14.4-14.4-24.6-0.1-16.1 12.6-28.9 28.8-28.9z m187-100.3c-13.6 0-24.6-11-24.6-24.6s11-24.6 24.6-24.6 24.7 11 24.7 24.6-11.1 24.6-24.7 24.6z m-134.3 0c-13.6 0-24.6-11-24.6-24.6s11-24.6 24.6-24.6 24.6 11 24.6 24.6-11 24.6-24.6 24.6z"  horiz-adv-x="1024" />

    
    <glyph glyph-name="HZ" unicode="&#59210;" d="M371.438 141.162L256.942-57.15 206.79 58.012 82 43.84l132.5 229.497c-36.746 56.067-58.116 123.119-58.116 195.162 0 196.89 159.61 356.5 356.5 356.5s356.5-159.61 356.5-356.5c0-72.39-21.576-139.741-58.649-195.972L942.768 43.84l-124.79 14.17-50.153-115.161L653.53 140.817C610.378 122.27 562.83 112 512.884 112c-50.256 0-98.082 10.399-141.446 29.162z m-35.817 17.963c-36.155 20.76-68.325 47.675-95.08 79.316l-84.239-145.905 75.354 8.557 30.296-69.566 73.669 127.598z m449.011 78.615c-26.823-31.556-59.044-58.38-95.237-79.046l73.42-127.167 30.297 69.566 75.354-8.557-83.834 145.204zM512.884 152c174.798 0 316.5 141.702 316.5 316.5S687.682 785 512.884 785s-316.5-141.702-316.5-316.5S338.086 152 512.884 152z m-140.68 121.681l26.962 157.207L284.95 542.223l157.844 22.936 70.59 143.032 70.591-143.032 157.845-22.936-114.218-111.335 26.964-157.207-141.181 74.223-141.18-74.223z m141.18 119.415l88.055-46.294-16.817 98.051 71.239 69.44-98.45 14.306-44.027 89.21-44.028-89.21-98.449-14.305 71.238-69.44-16.817-98.052 88.056 46.294z"  horiz-adv-x="1024" />

    
    <glyph glyph-name="clothes" unicode="&#59019;" d="M925.554759 895.800738v-78.568084l201.286316-199.332769-113.021538-112.559791a76.756614 76.756614 0 0 1-52.958867 19.926173 79.740212 79.740212 0 0 1-81.23201-80.912339V29.13652300000001a78.71016 78.71016 0 0 0-78.887755-78.568084H405.236559a78.71016 78.71016 0 0 0-78.852236 78.568084V444.247371a79.775731 79.775731 0 0 1-81.232011 80.912339 81.693758 81.693758 0 0 1-52.958867-19.926173L79.171907 617.793328l200.114188 199.332769h49.442483l2.344256-2.344255a342.15477 342.15477 0 0 1 546.21157 0 2.308737 2.308737 0 0 0 2.344256 2.344255h47.098227V895.800738m-596.719624 0H286.354381a77.324918 77.324918 0 0 1-61.19928-23.442556L23.868785 672.9898929999999a75.620005 75.620005 0 0 1 0-110.108978l116.537922-116.111694a75.264814 75.264814 0 0 1 51.786738-21.098301 81.018897 81.018897 0 0 1 51.786739 21.098301h1.172128c2.344256 0 2.344256 0 2.344256-2.344255V29.13652300000001a157.455839 157.455839 0 0 1 157.739991-157.136168h395.539865a157.455839 157.455839 0 0 1 157.739991 157.136168V444.247371c0 2.344256 0 2.344256 2.344255 2.344255h2.344256a75.264814 75.264814 0 0 1 51.786739-21.098301 76.294866 76.294866 0 0 1 51.786739 21.098301l116.537921 116.111694a75.620005 75.620005 0 0 1 0 110.108978L983.202137 872.180586a80.130921 80.130921 0 0 1-57.682897 23.442557h-49.406964a78.568084 78.568084 0 0 1-67.095438-37.50809 263.231496 263.231496 0 0 0-414.364949 0A74.589953 74.589953 0 0 1 329.900706 895.800738z"  horiz-adv-x="1207" />

    
    <glyph glyph-name="clockshizhong" unicode="&#59095;" d="M512 853.333333c259.2 0 469.333333-210.133333 469.333333-469.333333s-210.133333-469.333333-469.333333-469.333333S42.666667 124.8 42.666667 384 252.8 853.333333 512 853.333333z m0-85.333333a384 384 0 1 1 0-768 384 384 0 0 1 0 768z m-26.666667-417.28l-1.621333 1.322667a42.410667 42.410667 0 0 0-12.672 19.968l-0.341333 1.28a37.12 37.12 0 0 0-1.194667 6.997333 42.24 42.24 0 0 0-0.170667 3.242667V640a42.666667 42.666667 0 0 0 85.333334 0v-231.338667l126.464-73.045333a42.666667 42.666667 0 0 0-42.666667-73.898667l-147.797333 85.333334-0.768 0.426666a42.709333 42.709333 0 0 0-2.645334 1.749334l-0.768 0.554666-1.152 0.938667z"  horiz-adv-x="1024" />

    
    <glyph glyph-name="xianmiaogaogenxie-copy" unicode="&#59659;" d="M963.43267328 649.40434984c-13.99544377 62.1764821-65.61798268 112.42242079-102.78621309 144.31367961-1.835468 2.98263586-4.12980372 5.73583633-6.65357186 8.2596075l-5.96526872 6.19470405-1.60603559 1.60603563c-12.61884349 10.55394016-27.99088755 15.14261162-43.36293453 14.45430849-16.74864722 0.9177355-33.72672685-4.58867147-47.26330285-16.06034412-64.70025026-55.29347492-217.96183443-201.2131902-245.95272193-360.66947849-22.25505117-126.6472969-44.28066701-172.9928673-62.40591749-191.5769825-4.58867147-2.29433573-9.63620768-3.67093599-15.6014764-5.50640399-13.99544377-4.35923609-42.90406675-2.75320345-70.66552185-1.14716787-29.59692311 1.60603563-61.48818198 3.21206823-90.39680505-0.22943236 3.90036834 8.4890398 6.19470406 17.89581511 6.1947071 27.99088754 0 36.25049494-29.36749074 65.61798268-65.61798572 65.61798267s-65.61798268-29.36749074-65.61798271-65.61798267c0-20.41958319 9.40677526-38.77426305 24.09051919-50.93423884-102.097913-31.89125885-137.66010785-98.88584179-144.08424731-112.42242079-4.58867147-8.03017206-7.8007397-20.87845093-4.8181038-35.79162724 5.27697157-25.00825164 26.38485492-49.09877082 63.32364995-71.58325441 42.90406675-26.15541952 125.72956444-34.64445933 209.47279463-34.64446234 80.76059436 0 162.20949175 8.03017206 209.24336225 15.60147938 117.92882477 19.0429799 145.9197123 134.67747201 164.27439515 211.07883025 2.29433573 9.17733991 4.35923609 18.12524748 6.42413642 26.15541952 10.09507543 38.08596294 50.24593868 77.31909374 83.97266554 103.93338102l8.48903982-300.55789972c0.45886772-13.99544377 11.93054338-25.23768707 26.15541956-25.23768704h63.55308234c14.22487911 0 25.92598717 11.47167568 26.15542253 25.69655477 0 2.98263586 3.90036834 295.96922831 12.84827586 361.12834625 2.75320345 20.87845093 15.37204401 47.03387046 28.44975529 74.79532259 25.00825164 51.62253893 55.75234265 116.32278917 40.15086327 185.15284311zM365.29951269 188.93129402c22.9433513-3.21206823 42.67463439-6.19470406 73.8775901 3.21207123 54.14630704 16.28977949 89.47906951 60.34101412 122.28806091 246.18215733 25.00825164 142.70764404 168.17476346 278.30284851 228.51577752 330.15481987 5.73583633 4.81810381 13.99544377 4.81810381 19.96071548 0l0.45886473-0.45886477c5.04753619-4.12980372 10.55394016-8.94790754 16.51921483-13.99544674-0.45886772-0.9177355-1.14716786-1.835468-1.83546794-2.75320045-11.70110801-15.14261162-28.22032291-33.49729147-47.26330586-54.83461019-67.22401834-75.48362575-159.45629131-178.958139-185.84114319-288.62735636-4.81810381-19.96071545-8.94790754-40.60973103-12.84827588-60.79987883-13.30714362-67.22401834-26.84371963-136.97180473-64.47081489-155.32648764-55.06404255-26.61428729-201.9014903-33.03842676-259.48930092-17.6663797-4.12980372 4.35923609-8.25960743 9.63620768-11.01281092 14.22487612 65.38855027 8.71847216 96.13264132 4.35923609 121.14089603 0.68830013z m-153.720452 126.87673235c21.56675107 0 39.23313081-17.43694738 39.23312781-39.2331308 0-21.56675107-17.43694738-39.23313081-39.23312781-39.23313079-21.56675107 0-39.23313081 17.43694738-39.23313078 39.23313079 0 21.56675107 17.66637973 39.23313081 39.23313078 39.2331308z m664.8983142 170.46909923c-14.91317923-31.43239113-28.90862297-61.25874661-33.03842673-90.16736968-7.8007397-57.12894291-11.70110801-267.51947301-12.84827591-341.62649853h-12.61884352l-9.17733989 323.73068347c-0.22943236 9.17733991-5.50640394 17.66637973-13.536579 22.25505118s-18.12524748 4.12980372-25.92598718-0.68830016c-5.04753619-2.98263586-122.51749325-75.25419038-145.46084454-162.20949174-2.29433573-8.71847216-4.35923609-17.66637973-6.65357186-27.07315501-21.56675107-89.70850188-44.51010237-159.2268559-122.05862845-171.84569949-119.76429275-19.50184772-323.50125105-24.09051919-383.38339441 12.15997581-35.56219483 21.79618349-39.23313081 35.79162719-39.46256618 38.54483067 0.45886772 0.68830017 0.68830017 1.37660023 0.91773552 2.29433573 1.14716786 2.75320345 28.90862297 64.70025026 128.71220024 89.24963413 7.34187193-19.96071545 24.09051919-36.25049494 28.44975529-40.38029864 2.29433573-2.06490033 5.04753619-3.67093599 7.80073971-4.58866848 23.63165143-7.57130732 62.40591445-11.24224329 104.62168112-11.24224331 69.51835406 0 149.13178051 10.09507543 190.20037931 29.8263585 56.44064273 27.3025874 72.04212217 107.37488163 87.4141661 184.69397537 3.90036834 19.73128309 7.8007397 40.15086331 12.38941116 59.19384626 23.86108381 99.34470957 111.96355306 198.23055435 176.43436795 270.50210888 19.27241538 21.79618349 36.02106256 40.38029865 48.63990603 56.44064276 24.31995156-24.77881929 47.49273529-54.83461017 54.6051748-87.41416614 11.70110801-51.16367424-12.61884349-102.3273454-36.02105956-151.65555158z"  horiz-adv-x="1024" />

    
    <glyph glyph-name="icozhuanhuan" unicode="&#58985;" d="M113.36704 751.921152c-11.067392 0-20.037632 8.964096-20.037632 20.037632l0 20.037632c0 11.073536 8.968192 20.035584 20.037632 20.035584l40.073216 0c66.387968 0 120.215552-53.825536 120.215552-120.219648L273.655808 451.3792l0-180.330496c0-33.202176 26.914816-60.110848 60.1088-60.110848l480.874496 0c33.19808 0 60.1088 26.908672 60.1088 60.110848L874.747904 571.598848c0 33.204224-26.916864 60.110848-60.1088 60.110848L393.875456 631.709696c-11.061248 0-20.037632 8.96-20.037632 20.035584l0 20.031488c0 11.077632 8.974336 20.037632 20.037632 20.037632l420.765696 0c66.392064 0 120.219648-53.827584 120.219648-120.213504l0-300.548096c0-66.390016-53.827584-120.215552-120.219648-120.215552L333.7728 150.837248c-66.392064 0-120.221696 53.825536-120.221696 120.215552L213.551104 691.812352c0 33.20832-26.916864 60.114944-60.1088 60.114944L113.36704 751.927296 113.36704 751.921152zM393.875456 311.12192c-11.061248 0-20.037632 8.964096-20.037632 20.037632l0 20.035584c0 11.077632 8.974336 20.037632 20.037632 20.037632l360.654848 0c11.067392 0 20.037632-8.96 20.037632-20.037632l0-20.035584c0-11.073536-8.97024-20.037632-20.037632-20.037632L393.875456 311.12192 393.875456 311.12192zM393.875456 471.414784c-11.061248 0-20.037632 8.96-20.037632 20.037632l0 20.035584c0 11.077632 8.974336 20.037632 20.037632 20.037632l360.654848 0c11.067392 0 20.037632-8.962048 20.037632-20.037632l0-20.035584c0-11.077632-8.97024-20.037632-20.037632-20.037632L393.875456 471.414784 393.875456 471.414784zM834.676736 90.722304c33.19808 0 60.114944-26.906624 60.114944-60.1088s-26.923008-60.110848-60.114944-60.110848c-33.193984 0-60.1088 26.906624-60.1088 60.110848S801.482752 90.722304 834.676736 90.722304L834.676736 90.722304zM263.63904 96.626688c38.729728 0 70.125568-31.40608 70.131712-70.127616 0-38.723584-31.401984-70.129664-70.131712-70.129664-38.735872 0-70.125568 31.404032-70.125568 70.129664C193.51552 65.220608 224.91136 96.626688 263.63904 96.626688L263.63904 96.626688zM263.63904 96.626688"  horiz-adv-x="1024" />

    
    <glyph glyph-name="shopcart" unicode="&#58891;" d="M939.644 743.218h-203.646c-11.672 0.947-26.337-5.916-29.783-20.825l-35.212-142.092h-586.692c-11.247 0-20.367-9.128-20.367-20.367v-20.367c0-11.251 9.119-20.362 20.367-20.362h571.548l-20.187-81.46-490.265 0c-11.247 0-20.367-9.109-20.367-20.367v-20.362c0-11.257 9.119-20.367 20.367-20.367h475.123l-20.185-81.46-393.844 0c-11.247 0-20.367-9.109-20.367-20.362v-20.367c0-11.257 9.119-20.367 20.367-20.367h414.961c0 0 2.115-0.107 0 0v0c11.751 0 27.494 5.819 32.113 21.929l105.596 426.101h180.473c11.247 0 20.362 9.109 20.362 20.367v20.367c-0 11.258-9.115 20.362-20.362 20.362v0zM574.087 193.31c-35.342 0-64-28.642-64-64 0-35.342 28.657-64 64-64 35.342 0 64 28.657 64 64 0.001 35.357-28.658 64-64 64v0zM253.595 193.31c-35.342 0-64-28.642-64-64 0-35.342 28.657-64 64-64s64 28.657 64 64c-0 35.357-28.658 64-64 64v0zM92.806 466.088c0.115-0.305 0.243-0.602 0.385-0.892l-0.385 0.892zM155.912 473.952l0.031-0.146c-1.585 3.612-5.188 6.138-9.385 6.138h-44.167c-5.661 0-10.25-4.589-10.25-10.25 0-1.271 0.242-2.483 0.665-3.606l0.385-0.892 93.306-215.984 56.969 22.071-87.554 202.669z"  horiz-adv-x="1025" />

    
    <glyph glyph-name="xie" unicode="&#59321;" d="M748.420059-2.798487l-515.746324 0c-47.487547 0-85.989443 38.518269-85.989443 85.941348l0 601.704045c0 47.424102 38.501896 85.957721 85.989443 85.957721l386.809743 0c11.816117 0 21.441335-9.657964 21.441335-21.457708 0-11.879562-9.625218-21.521153-21.441335-21.521153l-386.809743 0c-23.712051 0-43.043329-19.266809-43.043329-42.97886l0-601.704045c0-23.712051 19.331277-42.97886 43.043329-42.97886l515.746324 0c23.647583 0 42.97886 19.266809 42.97886 42.97886l0 343.830883c0 11.879562 9.561773 21.537526 21.441335 21.537526s21.537526-9.657964 21.537526-21.537526l0-343.830883C834.37778 35.718759 795.827789-2.798487 748.420059-2.798487L748.420059-2.798487zM871.040794 734.109889 333.773318 196.889485c-4.173043-4.204765-9.689686-6.332219-15.205307-6.332219-5.483898 0-11.000542 2.12643-15.158235 6.332219-8.394181 8.346085-8.394181 22.032806 0 30.379914l537.204032 537.235754c8.394181 8.394181 22.049179 8.394181 30.426987 0C879.434975 756.110973 879.434975 742.50407 871.040794 734.109889L871.040794 734.109889z"  horiz-adv-x="1024" />

    
    <glyph glyph-name="top" unicode="&#58888;" d="M528.969 733.581c-4.493 4.493-10.6 7.045-16.969 7.045-6.37 0-12.433-2.552-16.971-7.045l-174.67-174.606c-9.336-9.401-9.336-24.559 0-33.939 9.423-9.358 24.604-9.358 33.939 0l157.701 157.701 157.7-157.701c4.668-4.646 10.818-6.979 17.013-6.979 6.064 0 12.258 2.333 16.927 6.979 9.336 9.38 9.336 24.538 0 33.939l-174.669 174.606zM65.291 289.118h102.56l0-261.744h47.9v261.744h102.56v47.943h-253.020v-47.943zM582.713 337.061h-127.033c-15.312 0-30.667-5.867-42.316-17.537-11.778-11.735-17.624-27.047-17.624-42.38v-189.873c0-15.313 5.846-30.646 17.624-42.36 11.648-11.691 27.004-17.537 42.316-17.537h127.033c15.225 0 30.624 5.846 42.36 17.537 11.691 11.713 17.536 27.047 17.536 42.36v189.873c0 15.333-5.845 30.645-17.536 42.38-11.735 11.67-27.135 17.537-42.36 17.537v0zM594.666 87.27c0-2.269-0.611-5.54-3.533-8.464-2.836-2.879-6.195-3.489-8.42-3.489h-127.033c-2.269 0-5.584 0.611-8.464 3.489-2.879 2.923-3.489 6.195-3.489 8.464l-0 189.873c0 2.269 0.611 5.54 3.489 8.464 2.879 2.922 6.195 3.512 8.464 3.512h127.033c2.225 0 5.584-0.589 8.42-3.512 2.923-2.923 3.533-6.195 3.533-8.464l0-189.873zM941.215 319.524c-11.779 11.67-27.091 17.537-42.403 17.537h-164.331v-309.687h47.899l0 135.823h116.433c15.312 0 30.623 5.845 42.403 17.558 11.647 11.691 17.493 27.026 17.493 42.337v54.050c-0.001 15.334-5.847 30.646-17.494 42.381v0zM910.766 223.093c0-2.225-0.611-5.54-3.49-8.464-2.922-2.879-6.238-3.489-8.463-3.489l-116.432-0v77.978h116.433c2.225 0 5.54-0.589 8.463-3.512 2.88-2.923 3.49-6.195 3.49-8.464l-0-54.049h-0.001zM910.766 223.093z"  horiz-adv-x="1024" />

    
    <glyph glyph-name="zixingche" unicode="&#59037;" d="M727.899188 422.46608c-4.592598 0-9.149381-0.148379-13.676487-0.412392l-50.779523 348.470553 124.430964 0c34.452673 0 71.532173-16.374946 71.532173-52.118008 0-13.060457-5.731538-25.421996-16.138562-34.634822-12.922311-11.437493-32.074509-17.483186-55.393611-17.483186-11.04966 0-20.008706-8.958022-20.008706-20.008706 0-11.050684 8.959046-20.008706 20.008706-20.008706 33.241079 0 61.568241 9.532097 81.917708 27.54638 18.832927 16.670681 29.632901 40.191374 29.632901 64.514339 0 24.322965-10.799974 47.853891-29.632901 64.524572-20.348444 18.015306-48.675606 27.577079-81.917708 27.577079L587.78401 810.433182c-11.04966 0-20.008706-8.903787-20.008706-19.954471s8.959046-19.954471 20.008706-19.954471l35.218106 0 38.350446-263.176958c-28.312836-5.465478-123.018801-28.897144-239.179404-113.158223-20.385283-14.786775-38.965453-30.568203-55.858192-46.735417L235.758492 622.145865l63.896262 0c11.04966 0 20.008706 8.903787 20.008706 19.954471s-8.959046 19.954471-20.008706 19.954471L137.582495 662.054807c-11.050684 0-20.008706-8.903787-20.008706-19.954471s8.958022-19.954471 20.008706-19.954471l53.927213 0c0.134053-0.325411 0.251733-0.654916 0.405229-0.976234L336.576665 316.795389c-4.835122-5.364171-9.494235-10.728342-13.980409-16.074094-23.435759 11.117199-49.622164 17.350157-77.239152 17.350157-99.710956 0-180.830485-81.120552-180.830485-180.830485s81.120552-180.830485 180.830485-180.830485 180.830485 81.120552 180.830485 180.830485c0 57.568137-27.04189 108.938108-69.088518 142.077879 24.26259 28.398794 53.634548 57.135278 88.572268 82.47848 106.884332 77.532841 195.115839 100.401688 221.464951 105.854886l7.481392-51.338249C571.716057 392.151657 494.870878 299.603845 494.870878 189.437769c0-128.492466 104.534821-233.028311 233.028311-233.028311s233.028311 104.534821 233.028311 233.028311S856.391654 422.46608 727.899188 422.46608zM386.170177 137.239943c0-77.644381-63.168692-140.813073-140.813073-140.813073S104.545054 59.596586 104.545054 137.239943 167.713746 278.053016 245.357104 278.053016c18.256806 0 35.713386-3.494591 51.736315-9.846252-47.602158-65.005526-69.019956-120.128985-70.436212-123.845633-3.931542-10.327206 1.252527-21.886473 11.579733-25.820062 2.342348-0.8913 4.750187-1.314948 7.116071-1.314948 8.063653 0 15.663748 4.910846 18.703991 12.894681 0.328481 0.861624 21.327748 54.909587 68.115354 117.913527C365.027647 222.232686 386.170177 182.158992 386.170177 137.239943zM727.899188-3.572106c-106.426915 0-193.009875 86.583984-193.009875 193.009875 0 90.045829 61.984726 165.881005 145.526421 187.094142l27.684526-189.979866c1.452071-9.955746 10.000771-17.125029 19.774369-17.125029 0.959861 0 1.932002 0.068562 2.911306 0.210801 10.93505 1.594311 18.506493 11.749602 16.914228 22.685675l-27.680433 189.951213c2.615571 0.105401 5.239328 0.173962 7.880481 0.173962 106.426915 0 193.009875-86.585007 193.009875-193.010899S834.32508-3.572106 727.899188-3.572106z"  horiz-adv-x="1024" />

    
    <glyph glyph-name="xiangzuo" unicode="&#58937;" d="M671.968176-15.99957c-12.287381 0-24.576482 4.67206-33.951566 14.047144L286.048434 350.015751c-18.751888 18.719204-18.751888 49.12028 0 67.872168L638.016611 769.888778c18.751888 18.751888 49.12028 18.751888 67.872168 0 18.751888-18.719204 18.751888-49.12028 0-67.872168l-318.016611-318.047574L705.888778 65.952426c18.751888-18.751888 18.751888-49.12028 0-67.872168C696.544658-11.32751 684.255557-15.99957 671.968176-15.99957z"  horiz-adv-x="1024" />

    
    <glyph glyph-name="shouji" unicode="&#58929;" d="M752.862231 833.610044 271.136745 833.610044c-17.798365 0-32.115442-14.332427-32.115442-32.004925l0-835.210239c0-17.513886 14.379499-32.003901 32.115442-32.003901l481.724463 0c17.798365 0 32.114418 14.332427 32.114418 32.003901L784.975627 801.604096C784.97665 819.120029 770.598174 833.610044 752.862231 833.610044zM632.431372 769.379161c13.296841 0 24.085558-10.788717 24.085558-24.086581s-10.788717-24.086581-24.085558-24.086581c-13.298887 0-24.087605 10.788717-24.087605 24.086581S619.132484 769.379161 632.431372 769.379161zM471.933981 769.379161l80.129992 0c13.344936 0 24.165376-10.694573 24.165376-24.086581 0-13.297864-10.726296-24.086581-24.165376-24.086581l-80.129992 0c-13.344936 0-24.164353 10.694573-24.164353 24.086581C447.769628 758.590444 458.4949 769.379161 471.933981 769.379161zM512.000512-17.436882c-26.611078 0-48.174186 21.561062-48.174186 48.171116 0 26.612101 21.562085 48.173163 48.174186 48.173163 26.611078 0 48.172139-21.561062 48.172139-48.173163C560.172651 4.12418 538.611589-17.436882 512.000512-17.436882zM736.804511 143.121907c0-8.859785-7.05672-16.043395-15.995299-16.043395L303.189765 127.078513c-8.829086 0-15.995299 7.309476-15.995299 16.043395L287.194466 656.992511c0 8.859785 7.05672 16.041348 15.995299 16.041348L720.810235 673.033859c8.828063 0 15.995299-7.30743 15.995299-16.041348L736.805534 143.121907z"  horiz-adv-x="1024" />

    
    <glyph glyph-name="weijin" unicode="&#58925;" d="M939.745061 532.271952 811.423487 714.022389c-22.679535 32.115442-59.414181 48.475038-96.070033 46.819328L311.218114 760.841717c-38.606273 2.6432-76.240405-15.196097-98.54541-46.819328L84.34499 532.259672c-25.999141-36.82572-27.272133-85.286432-3.246951-123.45166 7.042393-11.18883 19.094894-17.320481 31.41243-17.320481 6.746658 0 13.58439 1.834788 19.716041 5.696746 17.33276 10.911514 22.534226 33.80799 11.623735 51.140751-8.014534 12.721743-7.585769 28.895097 1.080611 41.170678l123.376958 174.748976 141.931546-97.316419L141.478222 377.160221c-16.72901-11.80486-20.711717-34.942837-8.901741-51.671846 11.80486-16.741289 34.942837-20.723997 51.677986-8.895601l514.90005 363.560226c5.679349 4.003174 12.112875 6.046716 18.585287 6.529717l1.686409 0c0.506537 0 0.977257 0.128937 1.479701 0.149403 11.511171-0.12382 22.812565-5.479805 29.937846-15.587l128.322597-181.750437c11.792581-16.693194 7.797593-39.866986-8.901741-51.659567l-514.942005-363.560226c-16.72901-11.816117-20.711717-34.955116-8.901741-51.684126 7.223518-10.235109 18.684548-15.691377 30.319539-15.691377 7.392364 0 14.858406 2.197038 21.357424 6.783497l514.942005 363.572506C963.142957 412.634154 975.122803 482.181113 939.745061 532.271952zM474.848868 612.5493l-108.120486 74.133418 213.113749 0L474.848868 612.5493zM383.330502 349.013161c-11.811 16.71673-34.961256 20.723997-51.671846 8.90788l-117.863385-83.198887c-16.72901-11.816117-20.717857-34.955116-8.90788-51.684126 7.223518-10.222829 18.678408-15.691377 30.319539-15.691377 7.393387 0 14.858406 2.197038 21.352307 6.783497l117.863385 83.198887C391.151631 309.146175 395.140479 332.284151 383.330502 349.013161zM454.603779 248.047632c-11.80486 16.72901-34.942837 20.711717-51.677986 8.90788l-117.844965-83.198887c-16.72901-11.816117-20.711717-34.955116-8.901741-51.684126 7.223518-10.222829 18.684548-15.691377 30.319539-15.691377 7.393387 0 14.858406 2.197038 21.357424 6.783497l117.844965 83.198887C462.431048 208.180646 466.414779 231.318622 454.603779 248.047632z"  horiz-adv-x="1024" />

    
    <glyph glyph-name="xiangshang" unicode="&#58907;" d="M908.406784 163.57376c7.86432-8.66304 21.25824-8.66304 29.12256 0 8.650752 7.876608 8.650752 21.245952 0 29.124608L525.873152 604.352512c-7.86432 7.878656-21.260288 7.878656-29.124608 0L85.0944 192.698368c-7.86432-7.878656-7.86432-21.248 0-29.124608 7.86432-8.66304 21.260288-8.66304 29.124608 0l397.500416 396.699648L908.406784 163.57376z"  horiz-adv-x="1024" />

    
    <glyph glyph-name="sousuo" unicode="&#58899;" d="M1015.7783-42.2318 723.5205 251.9511c118.8301 156.9516 106.7182 381.4717-36.393 524.5819-156.4109 156.4109-410.0045 156.4109-566.4154 0-156.4109-156.375-156.4109-409.9697 0-566.3805 143.06-143.06 367.404-155.2425 524.3433-36.606l292.3223-294.2136c9.6051-9.6041 25.2221-9.6041 34.8252 0l43.5763 43.5763C1025.4172-67.4519 1025.4172-51.8369 1015.7783-42.2318zM194.9153 282.1868c-114.8621 114.8611-114.8621 301.0826 0 415.9089 114.8631 114.8621 301.0458 114.8621 415.9099 0 114.8631-114.8262 114.8631-301.0478 0-415.9089C495.9611 167.3236 309.7784 167.3236 194.9153 282.1868z"  horiz-adv-x="1024" />

    
    <glyph glyph-name="user" unicode="&#58889;" d="M707.797 591.573c0 114.219-93.355 206.805-208.512 206.805-115.157 0-208.512-92.587-208.512-206.805 0-114.219 93.355-206.805 208.512-206.805 115.2 0 208.512 92.587 208.512 206.805M999.851-64.427c1.365-4.437 2.304-9.088 2.304-13.995 0-26.88-21.931-48.725-49.024-48.725-0.038-0-0.083-0-0.128-0-26.936 0-48.78 21.8-48.853 48.719l-0 0.178h-1.28c-12.757 203.904-182.741 365.483-391.168 365.483-208.469 0-378.453-161.579-391.253-365.483h-1.109v-0.171c0-26.88-21.931-48.725-48.981-48.725-0.051-0-0.111-0-0.171-0-26.936 0-48.781 21.8-48.853 48.719-0 4.615 0.853 8.967 2.048 13.234 14.251 185.045 131.883 341.248 296.149 410.88-76.331 55.339-126.251 144.725-126.251 245.888 0 168.107 137.173 304.427 306.347 304.427 169.216 0 306.347-136.32 306.347-304.427-0.054-97.41-46.076-184.060-117.548-239.44 171.564-66.48 296.449-226.011 311.425-416.56z"  horiz-adv-x="1024" />

    
    <glyph glyph-name="down" unicode="&#59386;" d="M537.6 153.60000000000002l339.2 339.2-44.8 44.8-316.8-316.8-316.8 316.8-44.8-44.8 339.2-339.2z"  horiz-adv-x="1024" />

    
    <glyph glyph-name="wujiaoxing" unicode="&#58900;" d="M959.008 489.984l-308 47.008L512 832 372.992 536.992l-308-47.008 223.008-228-52.992-324L512 90.976l276.992-152.992-52.992 324zM512 156L304 39.008l40 235.008-179.008 182.016 242.016 32 104.992 224 104-224 240.992-34.016L680 273.024l36.992-235.008z"  horiz-adv-x="1024" />

    
    <glyph glyph-name="like" unicode="&#58909;" d="M591.9995 828.160424a63.9996 63.9996 0 0 0 20.479872-22.39986c18.559884-31.359804 42.879732-111.9993-8.959944-303.358104l-20.479872-80.639496h360.957744a2124.78672 2124.78672 0 0 0-95.9994-429.437316 268.158324 268.158324 0 0 0-24.959844-56.319648H426.880532a81.279492 81.279492 0 0 0-37.119768 12.159924V455.682752c59.519628 51.19968 198.39876 188.158824 202.878732 362.237736v10.879932M591.9995 896c-73.59954 0-58.239636-59.519628-63.9996-69.759564 0-191.9988-202.878732-340.477872-202.878732-340.477872v-541.436616C325.121168-108.79372000000001 400.0007-127.99360000000001 426.880532-127.99360000000001h409.59744c38.39976 0 69.759564 101.119368 69.759564 101.119368 101.119368 344.957844 101.119368 447.9972 101.119368 447.9972a63.9996 63.9996 0 0 1-63.9996 63.9996h-276.478272C772.478372 876.160124 591.9995 896 591.9995 896zM190.722008 421.762964V-63.99400000000003H112.0025L80.0027 421.762964h108.79932m22.39986 63.9996H49.922888a33.279792 33.279792 0 0 1-33.919788-33.279792l33.919788-545.916588a33.919788 33.919788 0 0 1 34.559784-34.559784h141.439116c29.439816 0 29.439816 23.039856 29.439816 23.039856V444.162824a40.319748 40.319748 0 0 1-41.59974 41.59974z"  horiz-adv-x="1024" />

    
    <glyph glyph-name="icon--" unicode="&#59258;" d="M179.2 179.2c-15.36 0-25.6-10.24-25.6-25.6s10.24-25.6 25.6-25.6 25.6 10.24 25.6 25.6-10.24 25.6-25.6 25.6z m0 204.8c-15.36 0-25.6-10.24-25.6-25.6s10.24-25.6 25.6-25.6 25.6 10.24 25.6 25.6-10.24 25.6-25.6 25.6z m153.6 153.6h512c15.36 0 25.6 10.24 25.6 25.6s-10.24 25.6-25.6 25.6H332.8c-15.36 0-25.6-10.24-25.6-25.6s10.24-25.6 25.6-25.6z m512-153.6H332.8c-15.36 0-25.6-10.24-25.6-25.6s10.24-25.6 25.6-25.6h512c15.36 0 25.6 10.24 25.6 25.6s-10.24 25.6-25.6 25.6zM179.2 588.8c-15.36 0-25.6-10.24-25.6-25.6s10.24-25.6 25.6-25.6 25.6 10.24 25.6 25.6-10.24 25.6-25.6 25.6z m665.6-409.6H332.8c-15.36 0-25.6-10.24-25.6-25.6s10.24-25.6 25.6-25.6h512c15.36 0 25.6 10.24 25.6 25.6s-10.24 25.6-25.6 25.6z"  horiz-adv-x="1024" />

    
    <glyph glyph-name="jianminshaokao_qiezi" unicode="&#58906;" d="M344-96c-132.8 0-235.2 70.4-276.8 124.8C20.8 91.2 11.2 224 67.2 304c84.8 118.4 315.2 121.6 387.2 84.8 35.2-17.6 112 60.8 155.2 123.2l3.2 3.2c1.6 0 20.8 17.6 48 30.4l12.8-28.8c-17.6-9.6-33.6-20.8-38.4-24-17.6-24-123.2-166.4-195.2-131.2-60.8 30.4-275.2 27.2-347.2-75.2-52.8-73.6-35.2-190.4 0-236.8 44.8-59.2 166.4-136 320-105.6C553.6-28.8 752 161.6 768 281.6c0 4.8 1.6 12.8 3.2 19.2 6.4 40 16 108.8 4.8 161.6l32 6.4c12.8-59.2 3.2-129.6-3.2-172.8-1.6-8-1.6-14.4-3.2-19.2-19.2-134.4-225.6-332.8-382.4-364.8-27.2-4.8-51.2-8-75.2-8zM782.4 360l-3.2 32h1.6c3.2 1.6 11.2 11.2 14.4 24 1.6 11.2 0 20.8-8 28.8-17.6 17.6-70.4-4.8-92.8-17.6l-22.4-16v28.8s0 44.8-14.4 72c-4.8 9.6-56 6.4-108.8-8l-14.4-4.8-6.4 14.4c-1.6 4.8-9.6 35.2 35.2 81.6 36.8 36.8 121.6 52.8 171.2 52.8 49.6 0 188.8-33.6 208-140.8 16-100.8-121.6-137.6-150.4-145.6-3.2-1.6-6.4-1.6-9.6-1.6z m-1.6 30.4z m-12.8 91.2c16 0 30.4-4.8 41.6-16 16-16 22.4-38.4 16-60.8 41.6 16 92.8 46.4 84.8 96-14.4 86.4-136 115.2-176 115.2-51.2 0-123.2-17.6-148.8-43.2-12.8-12.8-19.2-24-24-30.4 43.2 9.6 105.6 17.6 123.2-14.4 9.6-19.2 14.4-43.2 16-60.8 19.2 6.4 43.2 14.4 67.2 14.4zM849.6 582.4l-59.2 24c-9.6 3.2-19.2 9.6-20.8 20.8-3.2 17.6 14.4 30.4 20.8 33.6 36.8 25.6 25.6 60.8 25.6 60.8 0 1.6-17.6 54.4 1.6 92.8 17.6 36.8 22.4 40 62.4 40 16 0 48-12.8 48-64V784c0-52.8 0-163.2-72-198.4l-6.4-3.2z m-41.6 51.2l40-16c48 32 48 121.6 48 166.4v6.4c0 32-16 32-16 32-22.4 0-22.4 0-33.6-22.4-11.2-20.8-3.2-56 1.6-67.2 4.8-20.8 6.4-68.8-40-99.2zM350.4-16c-8 0-16 6.4-16 14.4s6.4 16 14.4 17.6c86.4 6.4 212.8 54.4 324.8 240 4.8 8 14.4 9.6 22.4 4.8 8-4.8 9.6-14.4 4.8-22.4C582.4 41.6 446.4-8 350.4-16c1.6 0 0 0 0 0zM299.2-16c-30.4 3.2-48 8-49.6 8-8 3.2-12.8 11.2-9.6 20.8 3.2 8 11.2 12.8 20.8 9.6 0 0 16-4.8 40-6.4 8 0 16-8 14.4-17.6 0-8-6.4-14.4-16-14.4z"  horiz-adv-x="1024" />

    
    <glyph glyph-name="bianxie" unicode="&#59003;" d="M810.4-82H152C68.2-82 0-13.7 0 70.2V697.8C0 781.7 68.2 850 152 850h648.4c17.7 0 32-14.3 32-32s-14.3-32-32-32H152c-48.5 0-88-39.5-88-88.1v-627.6c0-48.6 39.5-88.1 88-88.1h658.4c48.5 0 88 39.5 88 88.1V358.9c0 17.7 14.3 32 32 32s32-14.3 32-32v-288.7c0-83.9-68.2-152.2-152-152.2zM1014.7 696.7L460.3 141.6c-12.4-12.5-32.8-12.5-45.3 0-12.4 12.5-12.4 32.9 0 45.3L969.4 742c12.4 12.5 32.8 12.5 45.3 0 12.4-12.5 12.4-32.8 0-45.3z"  horiz-adv-x="1024" />

    
    <glyph glyph-name="dianzan" unicode="&#58892;" d="M224-32H96c-17.7 0-32 14.3-32 32V480c0 17.7 14.3 32 32 32h128c17.7 0 32-14.3 32-32v-480c0-17.7-14.3-32-32-32z m-96 64h64V448h-64v-416zM800-32H320c-17.7 0-32 14.3-32 32V444.7c0 19.9 7 39.6 19.8 55.4l186.5 262.7C513.5 786.7 542 800 571.6 800H640c19.2 0 37.2-7.9 49.4-21.8 11.4-12.9 16.5-29.3 14.3-46.3-0.2-1.6-0.5-3.2-1-4.8L650.4 544H864c52.9 0 96-40.8 96-91.1v-334.8c0-82.7-71.8-150.1-160-150.1z m-448 64h448c52.9 0 96 38.7 96 86.2V452.9c0 14.9-14.4 27.1-32 27.1H608c-10 0-19.5 4.7-25.5 12.7-6 8-8 18.4-5.2 28.1l61.4 214.9-67 0.3c-10.5 0-20.4-4.4-26.4-11.9L358.8 461.5c-4.8-6.1-6.8-11.3-6.8-16.8V32z m289.7 703.7h0.3-0.3z"  horiz-adv-x="1024" />

    
    <glyph glyph-name="gouwuche" unicode="&#58921;" d="M342.8352 130.9696a100.6592 100.6592 0 1 1 100.6592-100.6592 100.7616 100.7616 0 0 1-100.6592 100.6592z m0-151.04a50.3808 50.3808 0 1 0 50.3808 50.3808 50.3808 50.3808 0 0 0-50.3808-50.3808zM792.576 130.9696a100.6592 100.6592 0 1 1 100.6592-100.6592 100.7616 100.7616 0 0 1-100.6592 100.6592z m0-151.04a50.3808 50.3808 0 1 0 50.3808 50.3808 50.3808 50.3808 0 0 0-50.3808-50.3808zM946.688 738.4064H160.8704L118.3744 818.176l-1.4336 2.4576a25.1904 25.1904 0 0 1-19.1488 12.0832l-55.7056 5.5296a25.1904 25.1904 0 1 1-5.0176-50.0736l42.3936-4.1984 37.0688-69.9392a62.5664 62.5664 0 0 1-13.312-38.5024 25.2928 25.2928 0 0 1 0.6144-5.4272L204.8 216.8832v-1.6384c13.5168-46.3872 44.6464-55.808 87.1424-55.808h528.7936c46.4896 0 79.2576 21.4016 87.552 57.4464l100.6592 453.12a25.2928 25.2928 0 0 1 0.6144 5.4272 62.976 62.976 0 0 1-62.8736 62.976zM859.136 227.9424c-3.584-15.7696-25.6-18.0224-38.4-18.0224H292.1472c-32.3584 0-34.6112 5.5296-38.5024 18.8416L153.6 677.4784a12.5952 12.5952 0 0 0 12.3904 10.24h780.6976a12.5952 12.5952 0 0 0 12.3904-10.24zM808.1408 592.896H304.7424a25.1904 25.1904 0 1 1 0-50.3808h503.3984a25.1904 25.1904 0 1 1 0 50.3808zM770.4576 474.112H342.528a25.1904 25.1904 0 1 1 0-50.3808h427.9296a25.1904 25.1904 0 0 1 0 50.3808zM732.672 355.328H380.2112a25.1904 25.1904 0 0 1 0-50.3808h352.4608a25.1904 25.1904 0 0 1 0 50.3808z"  horiz-adv-x="1024" />

    
    </font>
</defs>
</svg>
